<?xml version="1.0" standalone="no"?>
<!DOCTYPE svg PUBLIC "-//W3C//DTD SVG 1.1//EN" "http://www.w3.org/Graphics/SVG/1.1/DTD/svg11.dtd" >
<svg xmlns="http://www.w3.org/2000/svg">
<metadata>Generated by IcoMoon</metadata>
<defs>
<font id="icons_all" horiz-adv-x="1024">
<font-face units-per-em="1024" ascent="960" descent="-64" />
<missing-glyph horiz-adv-x="1024" />
<glyph unicode="&#x20;" horiz-adv-x="512" d="" />
<glyph unicode="&#xe900;" glyph-name="heart_outlined" horiz-adv-x="1057" d="M239.583 889.311c-83.638-17.474-148.282-87.635-168.564-182.999-4.525-21.24-4.525-77.395 0-98.667 9.15-43.074 26.657-80.202 52.422-111.352 12.585-15.228 403.753-443.59 405.075-443.59 1.288 0 392.588 428.494 405.141 443.656 25.699 31.083 43.206 68.245 52.356 111.286 4.525 21.273 4.525 77.428 0 98.667-17.606 82.713-67.518 145.771-137.612 173.783-40.035 16.021-91.764 17.342-132.757 3.402-28.544-10.413-53.109-25.305-74.151-44.064l0.225 0.197c-4.426-4.030-31.381-32.933-59.921-64.182s-52.521-56.815-53.281-56.815c-0.76 0-24.741 25.567-53.314 56.815-28.54 31.249-55.494 60.152-59.887 64.182-27.315 24.77-61.343 42.623-99.030 50.527l-1.388 0.244c-19.951 3.766-54.371 3.27-75.314-1.090z" />
<glyph unicode="&#xe901;" glyph-name="plus" d="M487.322 958.208c-39.629-6.246-62.566-26.112-73.779-63.898-2.816-9.472-3.072-22.989-3.533-176.998l-0.512-166.81-166.758-0.512c-152.678-0.512-167.68-0.768-177.050-3.533-17.664-5.12-30.259-12.339-40.704-23.296-10.496-10.957-16.23-21.658-21.043-39.322-4.25-15.462-4.301-56.064-0.051-71.68 9.062-33.485 27.853-52.531 61.798-62.618 9.472-2.816 22.989-3.072 177.050-3.533l166.758-0.512 0.512-166.758c0.461-154.061 0.717-167.578 3.533-177.050 10.086-33.946 29.133-52.736 62.618-61.798 8.192-2.202 17.613-3.021 35.84-3.021s27.648 0.819 35.84 3.021c33.485 9.062 52.531 27.853 62.618 61.798 2.816 9.472 3.072 22.989 3.533 177.050l0.512 166.758 166.758 0.512c153.088 0.461 167.629 0.768 177.050 3.482 17.715 5.222 30.31 12.39 40.704 23.347 10.496 10.957 16.23 21.658 21.043 39.322 4.25 15.462 4.301 56.064 0.051 71.68-9.062 33.485-27.904 52.582-61.798 62.618-9.472 2.765-23.398 3.021-177.050 3.533l-166.758 0.512-0.512 166.81c-0.461 154.010-0.717 167.526-3.533 176.998-9.984 33.69-29.44 53.043-61.747 61.44-12.493 3.277-47.462 4.659-61.389 2.458z" />
<glyph unicode="&#xe902;" glyph-name="arrowup" horiz-adv-x="865" d="M434.802 944.111c15.399 0 33.132-6.067 49.933-23.8l347.666-368.2c21.001-22.398 30.333-41.065 30.333-63.932 0-31.735-23.334-54.6-54.6-54.6h-189.001v-388.267c0-67.668-38.266-107.333-104.999-107.333h-158.201c-66.733 0-104.999 39.665-104.999 107.333v388.267h-187.135c-31.267 0-56.933 22.865-56.933 55.533 0 22.867 9.8 38.266 33.133 62.999l344.401 368.2c17.267 18.2 34.534 23.8 50.401 23.8z" />
<glyph unicode="&#xe903;" glyph-name="magnifyingglass" horiz-adv-x="1014" d="M0.014 545.744c0-228.414 185.845-414.259 414.256-414.259 90.328 0 172.867 29.072 240.873 77.869l255.406-255.925c11.94-11.94 27.513-17.651 44.126-17.651 35.299 0 59.699 26.475 59.699 61.256 0 16.613-6.23 31.667-17.132 42.567l-253.849 255.408c53.469 69.561 85.136 156.254 85.136 250.735 0 228.412-185.845 414.256-414.259 414.256-228.412 0-414.256-185.845-414.256-414.256zM88.784 545.744c0 179.614 145.872 325.487 325.487 325.487s325.488-145.872 325.488-325.487c0-179.615-145.873-325.488-325.488-325.488s-325.487 145.873-325.487 325.488z" />
<glyph unicode="&#xe904;" glyph-name="chat_enter" d="M478.72 958.946c-134.114-10.722-252.235-67.915-342.829-166.008-71.8-77.734-115.531-170.616-131.915-280.124-3.674-24.696-4.216-98.455-0.904-122.85 16.414-120.139 64.572-218.022 148.721-302.17s182.633-132.578 302.17-148.691c21.896-2.921 93.094-2.891 116.073 0.060 96.075 12.408 183.236 48.881 258.078 108.032 22.528 17.83 66.861 62.163 84.691 84.691 59.091 74.782 95.654 162.093 108.032 258.078 3.042 23.582 3.042 92.491 0 116.073-12.408 96.045-48.7 182.814-108.002 258.078-7.59 9.638-26.594 30.238-42.195 45.749-82.071 81.528-183.025 131.283-296.358 146.010-18.643 2.44-79.27 4.397-95.563 3.072zM571.723 870.34c74.391-11.264 140.378-38.701 198.776-82.583 21.865-16.474 55.447-49.032 73.096-70.957 49.784-61.771 80.173-133.451 91.949-216.757 3.283-23.191 2.771-85.986-0.873-110.080-13.944-91.497-49.935-167.936-109.357-232.087-66.349-71.68-153.54-117.399-252.717-132.488-28.853-4.397-92.431-4.397-121.193 0-52.495 8.041-109.116 27.226-149.715 50.718-34.003 19.667-58.458 38.28-87.251 66.319-33.85 32.462-61.948 70.597-82.825 112.93l-1.052 2.36c-27.076 55.115-39.755 103.575-43.43 165.798-11.053 187.512 99.93 358.882 274.884 424.418 31.172 11.656 74.662 21.444 111.014 24.968 22.016 2.138 77.101 0.693 98.696-2.56zM542.569 653.944c-10.48-5.422-17.658-15.931-18.278-28.17l-0.003-0.080c-0.392-5.572 0.241-13.011 1.416-16.655 3.132-9.668 61.259-67.704 100.171-100.051 17.107-14.185 30.78-26.112 30.419-26.504-0.392-0.361-20.51 0.181-44.755 1.205s-108.424 1.867-187.061 1.867c-125.41 0-143.782-0.331-149.323-2.65-32.979-13.794-28.521-62.645 6.445-70.626 10.451-2.379 238.562-2.379 304.64 0 28.16 1.024 55.386 1.596 60.506 1.295l9.336-0.572-26.383-21.926c-36.593-30.419-97.641-89.51-102.189-98.936-4.518-9.306-4.638-23.341-0.331-32.858 6.897-15.149 24.516-23.432 41.562-19.456 8.794 2.018 10.662 3.765 100.894 93.606 97.491 97.069 100.051 100.051 100.021 115.411-0.060 14.758-2.379 17.468-96.858 112.339-61.139 61.35-92.16 91.347-96.798 93.485-4.695 2.042-10.164 3.229-15.911 3.229-6.367 0-12.393-1.458-17.763-4.058l0.243 0.106z" />
<glyph unicode="&#xe905;" glyph-name="waveform" horiz-adv-x="903" d="M38.76 333.96c23.041 0 40.2 17.649 40.2 39.711v148.542c0 22.062-17.159 40.201-40.2 40.201-22.061 0-38.729-18.139-38.729-40.201v-148.542c0-22.062 16.668-39.711 38.729-39.711zM203.971 133.45c22.551 0 39.71 17.649 39.71 39.711v549.561c0 22.061-17.159 40.2-39.71 40.2-22.061 0-39.22-18.139-39.22-40.2v-549.561c0-22.062 17.159-39.711 39.22-39.711zM368.693-64.116c22.55 0 40.199 17.649 40.199 39.709v944.698c0 22.061-17.649 39.71-40.199 39.71-22.062 0-38.729-17.649-38.729-39.71v-944.698c0-22.060 16.667-39.709 38.729-39.709zM533.904 193.261c22.552 0 39.709 17.159 39.709 39.219v430.924c0 22.060-17.157 39.709-39.709 39.709s-39.219-17.649-39.219-39.709v-430.924c0-22.060 16.667-39.219 39.219-39.219zM699.115 44.717c22.062 0 39.221 17.649 39.221 39.219v728.011c0 21.571-17.159 39.71-39.221 39.71-23.040 0-39.709-18.139-39.709-39.71v-728.011c0-21.57 16.669-39.219 39.709-39.219zM863.839 291.801c22.060 0 39.709 17.647 39.709 39.219v233.845c0 21.57-17.649 39.709-39.709 39.709-22.552 0-39.221-18.139-39.221-39.709v-233.845c0-21.572 16.669-39.219 39.221-39.219z" />
<glyph unicode="&#xe906;" d="M1024 448c0-282.77-229.23-512-512-512s-512 229.23-512 512c0 282.77 229.23 512 512 512s512-229.23 512-512z" />
<glyph unicode="&#xe907;" d="M512 14.771c-239.267 0-433.231 193.963-433.231 433.229s193.964 433.231 433.231 433.231c239.266 0 433.229-193.964 433.229-433.231s-193.963-433.229-433.229-433.229zM512-64c282.769 0 512 229.231 512 512s-229.231 512-512 512c-282.77 0-512-229.23-512-512s229.23-512 512-512z" />
<glyph unicode="&#xe908;" d="M652.365 263.104h-79.872l-61.952 248.832h-1.024l-60.928-248.832h-81.41l-96.768 365.568h80.384l57.856-248.832h1.024l63.49 248.832h75.264l62.464-251.904h1.024l59.904 251.904h78.848l-98.304-365.568z" />
<glyph unicode="&#xe909;" glyph-name="chat_enter_active" d="M478.72 958.946c-160.437-12.83-300.815-94.088-390.325-225.943-46.411-68.367-72.282-136.975-85.233-226.123-3.012-20.57-3.012-95.413-0.030-116.917 3.915-28.040 10.36-58.609 17.408-82.703 52.947-181.097 205.734-322.229 389.873-360.147 88.275-18.161 173.237-13.161 259.464 15.27 172.544 56.862 305.754 204.83 342.799 380.838 8.734 41.382 10.36 58.278 10.33 105.623-0.060 45.899-1.566 62.103-9.306 100.141-30.81 151.13-133.12 284.341-273.047 355.509-48.253 25.219-104.41 43.315-163.812 51.107l-2.558 0.274c-18.643 2.44-79.27 4.397-95.563 3.072zM577.717 661.474c8.282-3.885 191.699-187.272 196.427-196.397 4.909-9.457 4.307-24.666-1.355-34.153-2.53-4.277-45.899-48.881-98.123-100.924-102.069-101.737-97.641-98.093-116.766-96.708-12.496 0.763-23.149 7.981-28.731 18.337l-0.092 0.186c-5.391 9.608-5.873 26.534-1.024 35.75 5.481 10.451 63.518 67.313 98.786 96.798 18.583 15.511 33.461 28.552 33.039 28.973-0.392 0.392-20.119-0.090-43.791-1.084s-110.17-1.807-192.241-1.807c-163.147 0-155.738-0.422-166.792 9.909-15.119 14.185-15.119 42.827 0 56.983 11.023 10.36 3.825 9.909 164.864 9.909 80.956 0 165.286-0.813 187.362-1.837 59.603-2.741 57.585-5.662 18.583 26.865-34.665 28.913-94.328 87.401-99.81 97.852-4.578 8.704-4.247 26.022 0.632 35.328 4.096 7.8 12.77 15.3 20.329 17.559 8.403 2.53 21.534 1.807 28.702-1.536z" />
<glyph unicode="&#xe90a;" glyph-name="question_colored" d="M466.59 958.267c-220.869-21.465-401.487-177.743-452.647-391.641-10.358-43.441-12.879-66.481-12.879-118.626 0-50.806 1.969-69.75 11.776-113.428 26.23-116.972 94.129-221.775 191.646-295.739 67.978-51.594 146.314-83.968 237.529-98.186 33.438-5.199 106.535-5.199 139.973 0 124.416 19.417 230.203 75.5 309.563 164.194 70.341 78.612 111.025 165.534 127.803 273.172 5.317 34.107 5.199 106.338-0.236 141.666-21.071 137.492-90.782 255.291-199.641 337.566-68.49 51.751-147.22 84.283-236.583 97.871-25.521 3.86-90.703 5.632-116.303 3.151zM574.031 876.229c47.262-6.774 85.189-18.708 129.969-40.802 85.461-42.374 153.052-109.965 194.314-192.955l1.112-2.472c15.99-32.571 23.788-53.169 31.586-83.614 9.767-38.085 13.194-66.245 13.194-108.386 0-71.68-12.997-127.291-44.78-192-42.387-85.453-109.974-153.040-192.955-194.314l-2.471-1.112c-32.571-15.99-53.169-23.788-83.614-31.586-38.085-9.767-66.245-13.194-108.386-13.194-71.68 0-127.291 12.997-192 44.78-85.461 42.374-153.052 109.965-194.314 192.955l-1.112 2.472c-19.76 37.92-34.193 82.001-40.858 128.587l-0.259 2.209c-5.238 34.619-5.238 87.788 0 122.407 6.925 48.796 21.357 92.877 42.203 133.098l-1.085-2.302c72 143.785 218.19 240.769 387.032 240.769 22.025 0 43.665-1.65 64.803-4.834l-2.378 0.294zM491.205 683.481c-74.24-6.853-136.31-45.332-162.58-100.825-12.327-25.954-16.62-58.88-9.689-74.082 8.35-18.353 31.311-27.884 49.231-20.401 16.266 6.774 23.828 18.196 26.23 39.582 2.521 22.607 13.666 39.582 35.446 54.075 72.862 48.404 194.56 15.793 199.522-53.445 2.087-29.223-12.564-47.419-67.82-84.283-30.247-20.204-41.275-28.554-54.39-41.157-20.598-19.81-32.177-42.023-33.91-65.024-1.142-15.399 1.497-24.852 9.413-33.634 6.858-8.122 17.047-13.244 28.432-13.244 0.32 0 0.639 0.004 0.957 0.012l-0.047-0.001c5.435 0 12.249 1.3 16.226 3.111 12.879 5.868 22.961 20.913 23.040 34.383 0.039 10.279 11.815 21.622 46.080 44.386 45.607 30.326 66.363 47.616 82.511 68.726 31.468 41.157 37.455 94.759 15.675 140.721-19.417 40.999-58.841 73.57-108.78 89.915-22.857 7.552-49.168 11.907-76.496 11.907-6.705 0-13.348-0.262-19.921-0.777l0.87 0.055zM501.602 210.156c-16.784-4.774-28.87-19.968-28.87-37.985 0-0.091 0-0.181 0.001-0.271v0.014c0-11.028 6.932-24.812 15.636-31.114 6.444-4.89 14.599-7.834 23.442-7.834 15.219 0 28.401 8.719 34.824 21.434l0.102 0.223c15.202 30.523-12.446 64.512-45.135 55.532z" />
<glyph unicode="&#xe90b;" glyph-name="chevronbackward" horiz-adv-x="577" d="M0.037 448.112c0-14.743 5.308-27.715 16.513-38.922l467.657-457.044c10.025-10.614 22.999-15.922 38.332-15.922 30.666 0 54.255 22.999 54.255 53.665 0 15.336-6.485 28.308-15.922 38.335l-429.324 419.888 429.324 419.89c9.438 10.025 15.922 23.589 15.922 38.333 0 30.666-23.589 53.666-54.255 53.666-15.333 0-28.308-5.308-38.332-15.333l-467.657-457.633c-11.205-10.614-16.513-24.178-16.513-38.922z" />
<glyph unicode="&#xe90c;" glyph-name="upvote" horiz-adv-x="1063" d="M1057.351 416.492l-528.675 543.507-528.675-543.507h255.021v-480.492h547.31v480.492h255.019z" />
<glyph unicode="&#xe90d;" glyph-name="upvote_outline-converted" horiz-adv-x="1065" d="M271.729 642.642l-256.287-302.981 279.183-0.901v-374.497h468.582v374.497l278.528 0.901-252.969 299.090c-198.363 237.304-282.325 335.879-366.482 434.282l109.622-131.301-3.85 3.891-256.328-302.981zM697.631 619.909c19.864-22.246 74.866-87.217 129.602-152.42l38.621-47.26c0.369-0.901-38.953-1.597-91.832-1.597h-92.447l-0.451-186.778-0.451-186.819-304.374-0.901v374.497h-92.324c-50.749 0-92.283 0.655-92.283 1.434 0 1.966 335.217 397.926 336.896 397.926 0.778 0 76.841-89.129 169.042-198.083z" />
<glyph unicode="&#xe90e;" glyph-name="circlefill" horiz-adv-x="1023" d="M511.846-63.808c280.040 0 511.903 232.364 511.903 511.903 0 280.043-232.364 511.905-512.404 511.905-279.541 0-511.403-231.863-511.403-511.905 0-279.539 232.365-511.903 511.905-511.903z" />
<glyph unicode="&#xe90f;" glyph-name="hamburger" horiz-adv-x="1528" d="M19.104 957.57c-2.797-1.162-7.963-5.196-11.463-8.956l-6.373-6.862v-61.929c0-58.337 0.306-62.265 5.105-67.645 11.967-13.419-34.082-12.655 757.806-12.655s745.839-0.764 757.806 12.655c4.799 5.38 5.105 9.308 5.105 67.798v62.097l-16.659 16.659-743.118 0.474c-408.714 0.275-745.411-0.459-748.208-1.635zM21.504 531.892c-4.279-1.253-10.576-5.242-14-8.895-6.175-6.572-6.236-7.076-7-64.986-0.871-65.826 0.474-72.49 16.032-79.872 7.688-3.653 78.252-3.974 751.188-3.393l742.706 0.657 16.659 16.644 0.764 59.254c0.749 58.475 0.672 59.361-5.181 68.088-3.454 5.12-9.675 10.133-14.779 11.891-10.76 3.699-1473.658 4.31-1486.389 0.611zM14.672 102.683c-13.48-7.321-14.672-13.419-14.672-74.981 0-62.005 1.177-67.859 15.207-75.104 6.618-3.424 91.167-3.867 748.972-3.867 815.394 0 751.799-1.269 760.312 15.207 5.655 10.943 5.655 116.583 0 127.526-8.513 16.476 55.174 15.207-760.817 15.1-651.356-0.092-742.874-0.565-749.003-3.882z" />
<glyph unicode="&#xe910;" glyph-name="person" d="M479.573 859.051c-17.451-3.84-31.872-8.96-46.677-16.597-8.576-4.48-19.84-9.813-25.003-11.904-11.179-4.565-14.336-7.040-22.528-17.835-3.456-4.523-8.405-9.813-11.051-11.819-13.013-9.728-15.787-13.696-21.205-30.208-5.376-16.299-9.685-25.259-15.317-31.701-11.307-13.013-15.232-31.488-14.635-69.12 0.555-34.475 4.48-49.237 23.381-87.893 13.227-26.965 14.080-28.245 24.704-36.608 6.059-4.779 13.056-11.733 15.531-15.488 5.461-8.235 11.435-11.989 27.093-17.067 14.635-4.693 23.68-9.131 31.829-15.573 8.661-6.784 17.109-10.027 32.768-12.544 9.325-1.688 20.057-2.654 31.014-2.654 30.865 0 59.941 7.659 85.432 21.18l-0.99-0.479c5.024 2.762 13.486 6.901 22.057 10.842l3.714 1.531c7.467 3.243 11.307 6.4 17.536 14.507 4.395 5.717 11.435 12.885 15.701 15.915 9.216 6.656 12.715 12.075 17.835 27.904 4.48 13.867 9.557 23.979 17.92 35.627 10.112 14.080 11.861 23.040 11.861 59.947-0.043 26.24-0.597 34.389-3.072 42.667-1.707 5.632-3.712 12.8-4.523 15.872-4.356 11.426-8.576 20.703-13.273 29.692l0.729-1.532c-3.040 5.664-7.113 14.189-10.94 22.847l-1.22 3.094c-1.451 4.779-5.632 9.344-15.104 16.555-4.402 3.34-8.273 6.967-11.739 10.957l-0.080 0.094c-9.387 12.501-13.909 15.829-27.648 20.395-16.597 5.461-24.448 9.259-36.821 17.963-14.293 9.984-28.885 13.056-62.293 13.056-15.019 0.043-30.763-0.725-34.987-1.621zM488.704 410.283c-5.213-2.055-9.716-4.581-13.813-7.622l0.159 0.113c-13.269-9.515-20.053-12.629-37.76-17.237-27.563-7.168-47.573-14.080-58.837-20.267-14.592-8.021-22.229-10.539-49.493-16.213-22.955-4.779-25.899-5.931-49.237-19.413-4.309-2.475-16.981-6.869-28.16-9.771-19.541-5.077-30.123-9.728-37.376-16.384-5.632-5.12-16.853-11.989-28.373-17.28-5.973-2.731-12.544-6.827-14.592-9.045-2.048-2.261-6.741-11.904-10.453-21.461-3.779-9.923-8.128-18.443-13.262-26.409l0.334 0.553c-16.299-22.187-18.475-36.907-17.536-117.888 0.683-58.581 1.365-63.744 8.96-70.4 2.878-2.044 6.234-3.655 9.847-4.642l0.222-0.052c9.643-2.645 715.691-2.645 725.333 0 8.491 2.347 12.544 5.803 15.787 13.483 3.2 7.552 4.779 103.893 2.219 136.747-2.048 26.539-5.035 34.944-19.627 55.253-4.661 6.293-9.427 13.536-13.801 21.036l-0.62 1.151c-4.181 8.363-9.941 13.867-22.357 21.291-6.492 4.046-12.124 8.295-17.351 12.986l0.114-0.101c-10.581 9.813-17.835 13.227-39.467 18.517-20.011 4.907-30.976 9.344-46.549 18.816-12.075 7.381-25.771 11.861-47.403 15.531-23.851 4.053-31.787 6.827-43.605 15.147-10.88 7.68-19.883 10.752-49.877 17.152-9.683 2.181-18.238 5.745-25.957 10.532l0.357-0.206c-17.749 10.624-22.869 12.8-35.627 15.531-12.544 2.645-34.005 2.944-42.197 0.555z" />
<glyph unicode="&#xe911;" glyph-name="repeat" horiz-adv-x="1225" d="M48.765 426.881c27.538 0 48.765 21.228 48.765 48.766v54.501c0 98.679 67.124 162.935 170.965 162.935h447.494v-134.823c0-22.948 13.767-36.144 37.291-36.144 10.326 0 21.225 4.017 29.259 10.902l216.86 179.57c18.36 14.917 19.507 38.439 0 54.503l-216.86 180.144c-8.034 6.885-18.934 10.327-29.259 10.327-23.524 0-37.291-12.622-37.291-36.144v-133.101h-438.315c-168.097 0-277.675-95.809-277.675-251.286v-61.386c0-27.539 20.654-48.766 48.765-48.766zM1176.103 467.615c-28.112 0-48.763-20.654-48.763-48.766v-54.501c0-98.679-67.126-162.359-171.541-162.359h-447.493v133.1c0 23.521-13.196 36.144-36.717 36.144-10.899 0-21.228-3.444-29.833-10.328l-216.862-179.57c-18.359-16.063-18.932-39.011 0-54.501l216.862-180.146c8.605-6.885 18.934-10.899 29.833-10.899 23.521 0 36.717 13.193 36.717 36.141v134.25h438.314c168.67 0 278.249 95.809 278.249 251.284v61.386c0 28.112-21.228 48.766-48.766 48.766z" />
<glyph unicode="&#xe912;" glyph-name="chevroncompactdown" horiz-adv-x="3338" d="M117.947 605.886l1278.692-499.87c86.124-33.699 189.090-74.889 273.343-74.889 82.372 0 187.219 41.19 273.334 74.889l1276.82 499.87c71.143 28.083 117.948 91.737 117.948 161.008 0 110.458-80.5 192.833-189.090 192.833-56.162 0-131.048-31.827-177.853-48.676l-1434.086-563.524h263.976l-1434.083 563.524c-46.804 16.85-119.819 48.676-177.856 48.676-108.586 0-189.090-82.376-189.090-192.833 0-69.27 46.804-132.925 117.947-161.008z" />
<glyph unicode="&#xe913;" glyph-name="chevroncompactup" horiz-adv-x="3601" d="M127.252 339.6c-76.755-30.298-127.252-98.974-127.252-171.689 0-119.173 86.855-210.070 204.008-210.070 62.616 0 141.392 34.341 191.888 54.54l1547.224 605.963h-284.802l1547.227-605.963c50.497-20.199 131.291-54.54 191.884-54.54 117.157 0 204.009 90.897 204.009 210.070 0 72.715-50.497 141.391-127.253 171.689l-1377.553 539.307c-92.908 36.358-206.028 80.795-294.898 80.795-90.899 0-201.989-44.437-294.908-80.795z" />
<glyph unicode="&#xe914;" glyph-name="team_add" d="M211.627 788.309c-35.868-6.485-65.536-26.624-82.972-56.32-12.914-22.016-17.692-55.211-11.804-81.721 9.216-41.387 44.032-76.203 85.419-85.419 18.802-4.181 45.084-2.844 61.98 3.157 29.445 10.319 52.827 31.582 65.698 58.788l0.293 0.689c10.78 22.699 13.71 47.787 8.391 71.908-9.562 40.39-39.197 72.155-77.541 84.563l-0.824 0.23c-11.577 3.584-38.855 5.916-48.64 4.124zM772.267 786.66c-32.085-7.054-63.488-31.659-77.284-60.53-26.738-56.036-7.794-117.788 45.995-149.902 20.821-12.459 54.613-17.209 80.754-11.378 41.387 9.216 76.203 44.032 85.419 85.419 4.181 18.802 2.844 45.084-3.186 62.009-12.544 35.3-39.424 61.013-75.378 72.249-14.279 4.466-41.131 5.49-56.32 2.133zM483.356 671.545c-20.452-5.348-35.186-14.080-51.627-30.578-22.67-22.784-32.825-46.905-33.024-78.62-0.142-20.082 2.332-30.692 11.748-50.347 13.488-27.417 36.878-48.235 65.39-58.043l0.8-0.239c12.231-4.039 16.725-4.636 35.356-4.636s23.125 0.597 35.356 4.636c29.312 10.048 52.702 30.866 65.893 57.616l0.297 0.667c9.415 19.655 11.89 30.265 11.748 50.347-0.199 31.716-10.354 55.836-33.024 78.62-16.668 16.697-31.289 25.287-52.309 30.663-8.448 2.061-18.146 3.243-28.121 3.243-10.106 0-19.928-1.213-29.329-3.502l0.845 0.174zM150.443 531.484c-22.329-3.868-48.185-18.404-64.341-36.21-10.524-11.577-22.756-34.901-26.624-50.688-3.3-13.483-3.3-150.357 0-163.84 3.868-15.787 16.1-39.111 26.652-50.716 13.288-14.236 29.769-25.317 48.315-32.12l0.866-0.278 14.023-4.722 162.674-1.081 0.711-34.475c0.882-42.155 2.162-46.677 17.38-61.924 18.119-18.148 4.836-16.924 181.902-16.924s163.783-1.223 181.902 16.924c15.218 15.246 16.498 19.769 17.38 61.924l0.711 34.475 162.674 1.081 14.023 4.722c29.292 10.128 52.665 30.957 65.891 57.699l0.299 0.669c11.89 24.832 11.947 25.344 11.947 106.667s-0.057 81.835-11.947 106.667c-16.16 32.81-46.862 56.325-83.46 62.263l-0.65 0.087c-7.993 1.252-36.352 1.65-82.631 1.223-65.166-0.626-71.253-0.939-80.725-4.124-46.592-15.701-77.739-53.931-80.64-99.044l-0.91-13.995-5.291 1.195c-6.94 1.564-210.204 1.564-217.145 0l-5.291-1.195-0.91 13.995c-2.901 44.999-34.133 83.371-80.64 99.044-9.557 3.214-15.076 3.47-83.627 3.868-40.363 0.228-77.483-0.313-82.517-1.166zM541.013 305.493v-28.16h56.32v-56.32h-56.32v-58.027h-58.027v58.027h-56.32v56.32h56.32v56.32h58.027v-28.16z" />
<glyph unicode="&#xe915;" glyph-name="team" horiz-adv-x="1317" d="M251.937 628.824c89.768 0 162.54 72.772 162.54 162.541s-72.772 162.54-162.54 162.54c-89.768 0-162.54-72.772-162.54-162.54s72.771-162.541 162.54-162.541zM658.286 466.286c89.768 0 162.54 72.772 162.54 162.538 0 89.768-72.772 162.541-162.54 162.541s-162.54-72.772-162.54-162.541c0-89.766 72.772-162.538 162.54-162.538zM1227.174 791.364c0-89.769-72.772-162.541-162.54-162.541s-162.54 72.772-162.54 162.541c0 89.768 72.772 162.54 162.54 162.54s162.54-72.772 162.54-162.54zM170.667 588.189c-89.768 0-162.54-72.772-162.54-162.54v-162.538c0-89.768 72.772-162.54 162.54-162.54h203.175v-81.271c0-44.884 36.385-81.269 81.269-81.269h406.349c44.884 0 81.271 36.385 81.271 81.269v81.271h203.174c89.768 0 162.54 72.772 162.54 162.54v162.538c0 89.768-72.772 162.54-162.54 162.54h-162.54c-89.768 0-162.54-72.772-162.54-162.54v-5.12c-12.988 3.343-26.604 5.12-40.635 5.12h-243.811c-14.031 0-27.646-1.777-40.635-5.12v5.12c0 89.768-72.772 162.54-162.54 162.54h-162.539z" />
<glyph unicode="&#xe916;" glyph-name="next" horiz-adv-x="1347" d="M1117.561-58.5h-887.753c-153.694 0-229.808 57.473-229.808 171.315v674.764c0 113.842 76.114 171.316 229.808 171.316h887.753c152.961 0 229.807-56.921 229.807-171.316v-674.764c0-114.394-76.846-171.315-229.807-171.315zM1060.476 451.579c0 12.711-5.853 21.553-21.224 33.159l-254.69 193.42c-10.245 7.737-24.153 11.606-39.518 11.606-32.205 0-54.892-17.686-54.892-41.448 0-12.159 6.589-22.657 16.834-30.946l93.68-70.184 90.748-57.473-159.547 4.972h-391.548c-32.932 0-57.085-17.683-57.085-43.105 0-24.867 23.42-42.553 57.085-42.553h391.548l160.28 4.422-91.481-57.473-93.68-70.184c-10.981-7.737-16.834-18.238-16.834-30.397 0-23.762 22.687-42 54.892-42 15.365 0 29.273 4.422 39.518 12.159l254.69 192.868c13.905 10.501 21.224 20.448 21.224 33.159z" />
<glyph unicode="&#xe917;" glyph-name="equality" horiz-adv-x="1023" d="M511.846-63.808c280.040 0 511.903 232.364 511.903 511.903 0 280.043-232.364 511.905-512.404 511.905-279.541 0-511.403-231.863-511.403-511.905 0-279.539 232.365-511.903 511.905-511.903zM511.846 21.509c-236.882 0-426.086 189.704-426.086 426.586s188.703 426.588 425.584 426.588c236.879 0 427.088-189.706 427.088-426.588s-189.704-426.586-426.586-426.586zM322.139 316.607h377.906c25.595 0 43.161 12.547 43.161 37.64 0 25.595-16.563 38.644-43.161 38.644h-377.906c-27.1 0-43.663-13.048-43.663-38.644 0-25.094 17.566-37.64 43.663-37.64zM322.139 501.796h377.906c25.595 0 43.161 12.547 43.161 38.142s-16.563 38.644-43.161 38.644h-377.906c-27.1 0-43.663-13.048-43.663-38.644s17.566-38.142 43.663-38.142z" />
<glyph unicode="&#xe918;" glyph-name="leaf" horiz-adv-x="1144" d="M0 716.402c0-402.72 241.307-667.239 612.716-667.239 259.12 0 442.666 167.349 442.666 403.799 0 227.272-185.165 391.381-440.508 391.381-87.994 0-177.067-24.833-275.857-24.833-83.135 0-154.933 25.372-214.315 92.852-31.31 36.709-93.392 39.948-108.507-22.133-12.956-52.364-16.195-144.676-16.195-173.827zM81.515 716.402c0 35.629 0.54 75.577 5.398 104.728 1.080 7.018 4.859 7.558 9.717 3.239 60.462-55.063 155.473-86.374 242.387-86.374 58.304 0 111.206 7.558 158.712 14.036 43.186 5.938 80.976 10.797 117.145 10.797 210.535 0 358.992-129.021 358.992-309.865 0-190.564-147.375-322.284-361.15-322.284-325.521 0-531.2 227.811-531.2 585.723zM315.805 590.621c34.010-105.27 136.037-147.377 263.44-178.686 183.003-43.729 266.678-79.357 340.097-171.129 59.923-73.958 74.498-163.032 107.968-269.918 8.097-25.913 25.91-35.089 44.805-35.089 39.949 0 71.8 37.248 71.8 82.056 0 74.495-84.756 203.517-141.439 280.714-72.877 96.631-197.581 152.234-395.7 184.085-102.569 17.273-193.262 44.266-255.343 125.242-17.276 23.212-43.726 7.018-35.629-17.273z" />
<glyph unicode="&#xe919;" glyph-name="badweather" horiz-adv-x="1017" d="M145.876 235.712h380.484c99.516 0 176.879 75.605 176.879 173.012 0 96.702-78.768 169.845-183.912 170.55-41.143 78.768-114.285 124.131-199.384 124.131-114.285 0-211.341-88.614-221.89-204.307-59.78-17.934-98.11-68.571-98.11-130.462 0-78.77 59.429-132.924 145.934-132.924zM743.677 427.010c51.693 35.165 83.341 88.614 83.341 150.856 0 96.704-77.011 174.418-173.715 174.418-63.648 0-118.856-34.462-148.044-85.099 14.77-15.472 27.428-31.648 37.979-52.043 116.043-9.496 190.944-81.584 200.439-188.132zM449.348 740.328c11.603-11.603 30.594-11.252 41.494 0 10.9 11.254 11.254 29.539 0 40.791l-54.154 54.155c-11.252 11.604-29.539 11.253-40.791 0-11.254-11.253-11.605-29.89 0-41.143zM653.304 808.196c16.177 0 29.188 13.363 29.188 29.187v75.956c0 15.824-13.011 29.187-29.188 29.187-16.175 0-29.186-13.363-29.186-29.187v-75.956c0-15.824 13.011-29.187 29.186-29.187zM815.765 740.328c10.902-11.252 29.891-11.603 41.494 0l53.802 53.803c11.254 11.253 11.254 29.89 0 41.143-11.252 11.253-29.537 11.604-40.791 0l-54.505-54.155c-11.252-11.252-10.9-29.537 0-40.791zM912.118 548.68h76.308c15.823 0 28.834 13.011 28.834 29.186 0 16.177-13.011 29.188-28.834 29.188h-76.308c-15.473 0-29.188-13.011-29.188-29.188 0-16.175 13.714-29.186 29.188-29.186zM870.271 319.757c11.254-11.254 29.539-10.9 40.791 0.352 11.254 11.254 11.254 29.891 0 40.791l-54.505 53.802c-11.252 10.9-29.537 11.254-40.791 0-11.252-10.9-11.252-29.891 0-41.143zM439.151 107.362h-77.013l-0.703-15.122 40.088 75.956c4.22 7.737 1.055 13.363-6.68 13.363h-73.496c-9.846 0-13.009-3.517-16.175-10.549l-45.011-102.33c-3.517-8.44 0.352-13.714 9.143-13.714h62.945l4.571 20.748-53.802-129.407c-2.111-4.923-1.055-8.44 2.461-9.846 3.165-1.406 7.034-0.352 10.199 3.517l148.747 150.505c7.384 7.385 4.923 16.88-5.274 16.88z" />
<glyph unicode="&#xe91a;" glyph-name="co2" horiz-adv-x="1302" d="M272.943-63.152h705.106c182.503 0 323.851 138.097 323.851 314.645 0 178.172-144.054 312.477-341.179 312.477-72.028 142.97-204.168 230.161-364.468 230.161-210.123 0-388.295-163.007-407.249-379.090-108.311-30.867-181.421-121.848-181.421-236.659 0-133.763 96.938-241.534 265.361-241.534zM464.654 118.271c-96.397 0-134.305 83.399-134.305 178.711 0 96.938 41.158 176.548 132.681 176.548 72.567 0 117.518-51.991 119.142-108.853 0.541-20.038-11.374-33.035-28.702-33.035-16.79 0-25.454 9.208-30.329 28.705-5.955 28.161-21.121 57.404-59.028 57.404-53.615 0-72.026-60.655-72.026-120.768 0-63.903 17.328-122.931 72.567-122.931 37.908 0 54.156 29.785 60.113 57.945 4.872 19.496 13.539 28.702 30.326 28.702 17.331 0 29.243-13.539 28.702-33.035-1.624-56.863-46.572-109.392-119.142-109.392zM740.306 118.271c-81.775 0-133.222 69.319-133.222 177.628 0 108.853 51.447 177.631 132.681 177.631 81.775 0 132.681-68.778 132.681-177.631 0-108.309-50.905-177.628-132.139-177.628zM915.228 97.151c-10.832 0-18.955 8.664-18.955 20.035 0 6.499 3.251 15.166 8.123 20.038l43.326 43.868c11.912 12.454 24.369 27.078 24.369 39.532 0 8.126-5.957 14.080-14.622 14.080s-14.080-5.413-17.328-16.246c-3.792-7.582-9.75-17.328-23.289-17.328-11.371 0-21.121 8.664-21.121 22.745 0 23.827 23.289 52.529 61.196 52.529 35.742 0 61.738-23.286 61.738-54.695 0-22.206-15.704-42.785-37.91-64.447l-17.87-18.955h42.782c10.832 0 20.038-9.747 20.038-20.035 0-11.374-8.664-21.121-20.038-21.121zM740.306 174.051c43.865 0 70.943 44.948 70.943 121.848s-27.078 121.851-71.484 121.851c-43.868 0-70.946-44.95-70.946-121.851s27.078-121.848 71.487-121.848zM75.818 467.032c41.7 0 75.276 33.577 75.276 75.818 0 41.7-33.576 75.277-75.276 75.277-42.241 0-75.818-33.577-75.818-75.277 0-42.241 33.576-75.818 75.818-75.818zM869.736 817.418c38.993 0 70.946 31.952 70.946 70.944s-31.953 71.485-70.946 71.485c-38.99 0-70.943-32.493-70.943-71.485s31.953-70.944 70.943-70.944zM1097.731 630.039c58.489 0 105.605 47.116 105.605 106.687 0 59.029-47.116 106.145-105.605 106.145-59.57 0-107.227-47.115-107.227-106.145 0-59.572 47.657-106.687 107.227-106.687z" />
<glyph unicode="&#xe91b;" glyph-name="healthy" horiz-adv-x="1007" d="M503.922 775.596c50.639 0 92.413 40.932 92.413 92.835 0 50.637-41.774 91.569-92.413 91.569-51.058 0-91.991-40.932-91.991-91.569 0-51.903 40.933-92.835 91.991-92.835zM411.509 459.955h185.672v100.853c0 7.173 11.393 10.55 15.611 1.687l117.732-239.261c10.55-21.099 35.869-29.959 56.968-18.988 20.255 10.126 29.116 35.867 18.566 56.966l-154.865 313.53c-18.568 37.134-53.17 59.077-96.633 59.077h-100.853c-43.464 0-78.065-21.943-96.633-59.077l-154.866-313.53c-10.549-21.099-1.688-46.84 18.567-56.966 21.099-10.971 45.995-2.111 56.544 18.988l118.576 239.261c4.22 8.862 15.613 6.331 15.613-1.265zM333.022-60.343c20.253-4.22 43.464 6.329 49.793 35.025l39.665 181.449 81.442 150.225 81.863-150.225 39.667-181.449c6.329-29.961 31.649-40.089 52.324-34.603 19.834 5.486 35.869 24.476 29.54 53.17l-40.087 186.937c-0.424 3.796-0.846 6.329-2.533 10.128l-49.793 141.362h-221.117l-50.637-141.362c-1.268-3.798-1.689-6.331-2.533-10.128l-40.087-186.937c-6.331-29.961 11.815-49.371 32.492-53.591zM86.586 254.030h24.475c16.879 0 28.273 11.815 28.273 28.696v226.602c0 16.879-11.393 28.272-28.273 28.272h-24.475c-16.879 0-28.272-11.393-28.272-28.272v-226.602c0-16.881 11.393-28.696 28.272-28.696zM896.362 254.030h24.898c16.879 0 27.85 11.815 27.85 28.696v226.602c0 16.879-10.971 28.272-27.85 28.272h-24.898c-16.879 0-28.272-11.393-28.272-28.272v-226.602c0-16.881 11.393-28.696 28.272-28.696zM23.711 372.606h960.422c13.083 0 23.208 10.128 23.208 23.21 0 13.080-10.126 23.63-23.208 23.63h-960.422c-13.503 0-23.631-10.55-23.631-23.63 0-13.083 10.127-23.21 23.631-23.21z" />
<glyph unicode="&#xe91c;" glyph-name="flag_big_outline" horiz-adv-x="926" d="M39.348-63.825c21.913 0 39.652 17.216 39.652 39.128v290.088c13.043 5.739 62.087 24.523 138.783 24.523 193.044 0 314.088-94.437 497.739-94.437 81.391 0 111.653 8.871 151.305 26.609 35.999 16.175 59.478 43.306 59.478 91.305v529.565c0 28.174-24.001 44.348-54.261 44.348-25.566 0-73.565-21.913-163.306-21.913-183.651 0-304.173 94.435-497.739 94.435-81.391 0-112.174-8.87-151.826-26.609-36-16.174-59.478-43.304-59.478-90.783v-867.132c0-21.391 18.261-39.128 39.652-39.128zM715.522 274.26c-173.739 0-296.868 94.434-497.739 94.434-57.391 0-109.565-6.783-138.783-18.781v489.912c7.304 17.217 50.609 41.217 132 41.217 183.652 0 306.262-94.435 497.739-94.435 56.871 0 103.827 6.783 138.783 16.696v-487.827c-7.304-17.216-50.61-41.217-132.001-41.217z" />
<glyph unicode="&#xe91d;" glyph-name="flag_big_solid" horiz-adv-x="926" d="M39.348-63.825c21.913 0 39.652 17.216 39.652 39.128v290.088c13.043 5.739 62.087 24.523 138.783 24.523 193.044 0 314.088-94.437 497.739-94.437 81.391 0 111.653 8.871 151.305 26.609 35.999 16.175 59.478 43.306 59.478 91.305v529.565c0 28.174-24.001 44.348-54.261 44.348-25.566 0-73.565-21.913-163.306-21.913-183.651 0-304.173 94.435-497.739 94.435-81.391 0-112.174-8.87-151.826-26.609-36-16.174-59.478-43.304-59.478-90.783v-867.132c0-21.391 18.261-39.128 39.652-39.128z" />
<glyph unicode="&#xe91e;" glyph-name="Home_outline_2" d="M490.417 952.009c-16.699-12.682-482.58-480.374-486.321-488.212-3.151-6.617-3.23-14.572-3.23-253.44 0-267.461-0.512-252.731 9.216-263.404 10.279-11.225-3.151-10.516 204.958-10.516 200.074 0 195.269-0.197 205.588 7.916 10.91 8.586 10.201-2.796 11.146 184.084 0.945 188.889 0.118 176.207 12.485 189.204 11.028 11.658 13.47 12.091 67.742 12.091s56.714-0.433 67.742-12.091c12.367-12.997 11.54-0.315 12.485-189.204 0.945-186.88 0.236-175.498 11.146-184.084 10.319-8.113 5.632-7.916 203.894-7.916 203.658 0 195.151-0.433 205.903 9.728 10.437 9.886 9.964-1.969 9.964 265.886 0 237.214-0.079 245.13-3.23 251.746-3.742 7.838-469.622 475.53-486.321 488.212-9.531 7.247-10.476 7.562-21.583 7.562s-12.052-0.315-21.583-7.562zM729.167 647.684l216.34-216.34v-417.28h-276.362l-0.551 148.913c-0.512 133.632-0.866 149.858-3.466 158.287-12.524 40.999-45.529 72.94-85.898 83.141-17.408 4.372-117.051 4.372-134.459 0-34.475-9.086-62.319-32.238-77.51-62.791l-0.314-0.697c-12.091-25.009-11.973-22.764-11.973-183.414v-143.439h-276.48v417.28l216.34 216.34c118.981 118.981 216.694 216.3 217.167 216.3s98.186-97.319 217.167-216.3z" />
<glyph unicode="&#xe91f;" glyph-name="home_solid" d="M494.025 954.439c-8.271-5.12-411.963-407.985-465.841-464.817l-25.6-27.018-1.378-45.45c-1.969-65.812-0.236-445.991 2.127-456.743 2.243-10.359 9.84-18.519 19.686-21.529l0.203-0.053c9.137-2.363 284.042-3.86 342.252-1.851 49.506 1.694 52.263 2.284 60.022 12.682 5.12 6.853 6.105 32.689 6.302 164.352 0.197 135.247 1.733 187.156 5.632 194.757 4.096 7.877 15.557 17.369 22.882 18.905 8.428 1.812 94.996 1.812 103.424 0 7.326-1.536 18.786-11.028 22.882-18.905 3.899-7.562 5.396-59.904 5.632-195.584 0.197-130.836 1.182-156.672 6.302-163.525 7.798-10.437 10.713-11.067 59.234-12.721 59.116-2.009 330.122-0.354 341.504 2.087 11.934 2.56 19.141 10.082 21.465 22.331 2.245 12.012 3.978 387.781 2.087 453.238l-1.378 48.010-27.294 28.711c-57.108 60.101-455.877 457.964-464.148 463.124-5.045 3.457-11.281 5.521-17.999 5.521s-12.954-2.064-18.109-5.592l0.11 0.071z" />
<glyph unicode="&#xe920;" glyph-name="flag_hollow" d="M170.717 956.383c-7.475-4.672-9.398-12.861-9.068-38.417 0.165-13.959 1.21-20.665 3.957-24.787 7.694-11.762 24.128-12.092 32.646-0.715 3.572 4.726 4.452 9.563 4.617 25.282 0.33 26.271-1.539 34.075-9.398 38.747-3.158 2.195-7.074 3.508-11.298 3.508-4.291 0-8.265-1.354-11.518-3.658l0.062 0.041zM169.124 707.467c-2.654-2.903-4.722-6.39-5.989-10.242l-0.057-0.201c-0.934-3.353-1.704-171.805-1.704-374.334 0-352.788 0.165-368.563 4.013-376.366 4.452-8.848 12.036-11.981 23.304-9.508 4.452 0.989 7.584 3.848 10.443 9.508 3.737 7.584 4.067 17.038 4.507 138.939 0.274 71.943 1.099 135.806 1.758 141.962 1.539 13.685 7.364 23.633 16.873 28.854 6.705 3.627 16.543 4.013 124.87 4.617 70.954 0.385 124.924-0.274 136.026-1.593 20.115-2.473 33.196-8.518 42.595-19.676 7.255-8.629 19.182-14.454 41.33-20.060 23.468-6.045 24.842-6.705 41.275-21.599 10.443-9.454 20.995-14.839 33.361-16.927 5.441-0.934 52.158-1.649 103.765-1.649 92.223 0.109 94.037 0.165 103.875 4.946 6.87 3.353 10.552 6.705 11.651 10.717 2.143 7.64 2.143 333.773 0 341.412-1.154 4.067-4.837 7.42-12.036 10.882-10.387 5.056-10.882 5.056-93.982 4.561-89.2-0.495-141.247 1.814-153.174 6.925-7.659 4.25-14.274 9.041-20.247 14.524l0.076-0.070c-13.959 12.311-20.39 15.608-38.856 19.951-7.078 1.623-12.957 3.38-18.683 5.459l1.095-0.348c-2.297 0.982-5.115 1.94-8.013 2.702l-0.451 0.1c-2.803 0.55-9.563 5.936-18.411 14.509-7.805 7.584-18.411 14.509-24.787 16.103-3.627 0.934-60.016 2.308-125.309 3.023-113.932 1.319-119.044 1.539-126.408 5.826-9.783 5.661-14.565 15.499-17.642 36.218-3.683 24.732-4.122 26.161-8.794 30.833-2.858 2.858-7.31 4.342-13.135 4.342s-10.278-1.484-13.135-4.342zM485.418 588.644c17.807-2.308 31.437-8.848 40.34-19.456 7.255-8.629 19.182-14.454 41.33-20.060 23.468-6.045 24.842-6.705 41.275-21.599 10.443-9.454 20.995-14.839 33.361-16.927 5.441-0.934 41.055-1.814 79.143-1.923l69.25-0.22 10.992-5.496c18.631-9.343 18.467-8.135 18.467-137.401s0.165-128.112-18.467-137.401c-10.717-5.332-12.476-5.496-67.051-6.21-63.205-0.934-121.022 2.143-132.179 6.87-7.673 4.295-14.303 9.103-20.309 14.585l0.084-0.076c-13.959 12.311-20.39 15.608-38.856 19.951-7.078 1.623-12.957 3.38-18.683 5.459l1.095-0.348c-2.297 0.982-5.115 1.94-8.013 2.702l-0.451 0.1c-2.803 0.55-9.563 5.936-18.411 14.509-7.805 7.584-18.411 14.509-24.787 16.103-3.627 0.934-60.016 2.308-125.309 3.023-114.153 1.319-118.988 1.539-126.354 5.826-4.869 3.186-8.906 7.221-11.995 11.936l-0.095 0.156c-4.342 7.42-4.452 10.937-4.452 125.254 0 108.382 0.33 118.164 3.902 124.759 4.608 8.183 12.465 14.077 21.777 15.959l0.207 0.035c10.387 2.473 235.064 2.364 254.19-0.109z" />
<glyph unicode="&#xe921;" glyph-name="flag_solid" horiz-adv-x="748" d="M49.425 959.676c-13.289-2.563-21.925-8.715-26.736-19.085-2.405-5.244-2.642-8.32-3.037-36.081-0.354-27.643-0.197-31.112 2.13-38.723 2.449-8.598 8.273-15.529 15.911-19.399l0.177-0.081c9.148-4.614 32.65-4.614 41.799 0 15.615 7.887 18.967 19.006 18.218 60.766-0.474 24.33-0.749 27.090-3.352 32.926-5.6 12.657-15.891 18.928-32.256 19.795-1.706 0.131-3.695 0.205-5.701 0.205-2.519 0-5.010-0.117-7.469-0.347l0.314 0.024zM40.908 720.91c-8.166-2.906-14.582-8.987-17.867-16.719l-0.075-0.197-2.879-6.388v-736.723l2.602-5.718c6.27-13.526 17.232-19.244 36.712-19.164 18.613 0.079 28.746 5.797 35.213 19.874l2.879 6.231 0.354 144.561 0.315 144.522h225.871l156.351-78.037 109.426-0.315c121.769-0.394 118.18-0.592 127.565 7.887 3.12 3.073 5.71 6.671 7.629 10.655l0.099 0.228 2.997 6.506 0.315 167.352c0.236 116.682-0.079 169.285-1.025 173.859-1.871 9.775-8.099 17.794-16.542 22.080l-0.177 0.082-7.374 3.747-202.487 1.262-73.029 36.712c-40.182 20.151-76.105 37.737-79.812 38.999-6.428 2.209-12.895 2.327-128.196 2.327h-121.413l-0.592 25.908c-0.315 14.669-1.222 27.958-2.051 30.56-2.888 7.95-8.441 14.348-15.559 18.248l-0.175 0.088c-8.556 4.337-28.983 5.165-39.078 1.577z" />
<glyph unicode="&#xe922;" glyph-name="bolt_outline" horiz-adv-x="632" d="M211.787-19.944l406.149 522.318c7.595 9.384 11.617 18.319 11.617 28.596 0 16.979-13.404 29.936-32.171 29.936h-252.447l133.151 347.618c17.872 46.021-31.278 71.042-60.32 32.617l-406.149-521.871c-7.596-9.83-11.617-18.768-11.617-28.596 0-17.428 13.404-30.384 32.17-30.384h252.447l-133.149-347.171c-17.872-46.021 31.277-71.042 60.319-33.062zM238.15 100.247l149.68 326.617h-276.128l291.767 387.383-12.512 6.702-149.234-326.616h275.68l-291.766-387.384 12.512-6.702z" />
<glyph unicode="&#xe923;" glyph-name="bolt_solid" horiz-adv-x="632" d="M0 405.615c0-17.425 13.404-30.382 32.17-30.382h252.447l-133.149-361.914c-17.426-46.021 30.383-70.597 60.319-33.064l406.149 507.575c7.595 9.382 11.617 18.319 11.617 28.596 0 16.979-13.404 30.382-32.171 30.382h-252.447l133.151 361.915c17.425 46.021-30.384 70.596-60.32 32.617l-406.149-507.128c-7.596-9.83-11.617-18.765-11.617-28.596z" />
<glyph unicode="&#xe924;" glyph-name="stats" horiz-adv-x="983" d="M26.917 917.681c-9.99-3.592-16.633-9.941-21.702-20.767l-4.183-8.858-0.542-456.187-0.493-456.237 953.762 1.033 8.366 4.478c10.826 5.807 17.569 16.24 19.882 30.954 3.888 24.852-3.789 45.964-19.882 54.576l-8.366 4.478-855.241 1.033-0.493 407.911-0.542 407.96-4.134 8.908c-4.574 10.256-13.15 18.028-23.69 21.429l-0.275 0.077c-10.236 2.855-33.415 2.411-42.469-0.787zM509.384 844.7c-6.25-2.327-11.617-5.668-16.175-9.872l0.034 0.030c-13.632-13.632-12.894 4.233-12.894-312.934 0-317.363-0.738-299.45 12.894-312.737 16.731-16.191 57.872-15.649 73.178 1.033 10.875 11.859 10.384-2.658 10.384 311.458 0 196.008-0.688 292.019-2.066 297.039-3.732 10.729-11.343 19.3-21.114 24.199l-0.244 0.111c-10.433 4.429-32.774 5.266-43.994 1.674zM767.299 696.919c-12.215-4.046-21.598-13.609-25.319-25.657l-0.073-0.278c-2.214-7.628-2.707-47.833-2.707-223.862 0-200.437 0.246-215.151 3.494-223.566 6.84-17.766 20.915-25.934 44.733-25.934s37.892 8.169 44.733 25.934c3.248 8.415 3.494 23.129 3.494 223.566 0 236.066 0.443 227.109-12.056 240.052-11.614 11.909-35.727 16.092-56.297 9.744zM254.962 550.713c-15.797-4.183-24.704-12.303-29.428-26.82-2.805-8.76-3.1-25.639-2.608-153.539l0.542-143.696 4.478-8.366c8.612-16.092 29.724-23.769 54.576-19.882 14.714 2.313 25.147 9.055 30.954 19.882l4.478 8.366 0.542 143.696c0.493 127.9 0.197 144.779-2.608 153.539-5.856 18.060-18.257 26.475-40.993 27.657-1.881 0.143-4.075 0.225-6.288 0.225-4.815 0-9.542-0.386-14.148-1.128l0.506 0.067z" />
<glyph unicode="&#xe925;" glyph-name="checkmark_sharp" horiz-adv-x="996" d="M370.054-41.757c24.404 0 43.703 10.785 57.325 31.783l536.352 844.542c10.215 16.46 14.189 28.946 14.189 42 0 31.216-20.433 51.649-51.648 51.649-22.705 0-35.19-7.378-48.812-28.946l-509.675-812.189-264.488 346.217c-14.189 19.863-28.378 27.809-48.811 27.809-32.351 0-54.486-22.135-54.486-53.35 0-13.055 5.676-27.811 16.459-41.433l294.568-375.16c17.026-22.135 34.622-32.92 59.027-32.92z" />
<glyph unicode="&#xe926;" glyph-name="close-x" d="M41.911 954.734c-11.995-7.607-27.794-23.040-35.328-34.67l-6.583-10.094v-22.894c0-21.65 0.219-23.333 4.535-30.866 2.926-5.193 73.874-77.458 204.361-208.091l199.826-200.119-199.826-200.119c-130.487-130.633-201.435-202.898-204.361-208.091-4.315-7.534-4.535-9.216-4.535-30.793 0-22.528 0.073-22.967 5.266-31.305 7.314-11.63 22.674-27.136 34.67-35.035l10.094-6.656h22.894c21.65 0 23.333 0.219 30.866 4.535 5.193 2.926 77.458 73.874 208.091 204.361l200.119 199.826 200.119-199.826c130.633-130.487 202.898-201.435 208.091-204.361 7.534-4.315 9.216-4.535 30.866-4.535h22.894l10.094 6.656c11.995 7.899 27.355 23.406 34.67 35.035 5.193 8.338 5.266 8.777 5.266 31.305 0 21.577-0.219 23.259-4.535 30.793-2.926 5.193-73.874 77.458-204.361 208.091l-199.826 200.119 199.826 200.119c130.487 130.633 201.435 202.898 204.361 208.091 4.315 7.534 4.535 9.216 4.535 30.866v22.894l-6.583 10.094c-9.709 13.675-21.425 25.188-34.857 34.365l-0.471 0.304c-8.119 5.193-8.558 5.266-30.501 5.266-21.797 0-22.528-0.146-31.671-5.339-7.168-3.95-57.783-53.614-208.677-204.288l-199.241-199.095-199.241 199.095c-150.894 150.674-201.509 200.338-208.677 204.288-9.143 5.193-9.874 5.339-31.671 5.339-21.943 0-22.382-0.073-30.501-5.266z" />
<glyph unicode="&#xe927;" glyph-name="comment_detailed" d="M280.761-42.979c22.37 0 37.892 11.869 65.739 36.523l157.5 140.152h293.087c136.045 0 209.087 75.324 209.087 209.085v349.696c0 133.761-73.042 209.087-209.087 209.087h-587.999c-136.044 0-209.087-74.87-209.087-209.087v-349.696c0-134.217 73.043-209.085 209.087-209.085h21.914v-118.697c0-35.152 17.804-57.978 49.76-57.978zM299.478 40.566v132.39c0 24.654-9.586 34.239-34.239 34.239h-56.151c-92.217 0-135.587 47.022-135.587 136.043v349.24c0 89.022 43.37 135.587 135.587 135.587h587.999c91.762 0 135.589-46.565 135.589-135.587v-349.24c0-89.021-43.827-136.043-135.589-136.043h-295.825c-25.567 0-38.349-3.651-55.697-21.455l-146.087-145.174zM267.979 643.631h464.738c14.61 0 26.023 11.413 26.023 26.477 0 14.153-11.413 26.023-26.023 26.023h-464.738c-14.61 0-26.479-11.869-26.479-26.023 0-15.064 11.869-26.477 26.479-26.477zM267.979 494.803h464.738c14.61 0 26.023 11.869 26.023 26.936 0 14.151-11.413 26.021-26.023 26.021h-464.738c-14.61 0-26.479-11.869-26.479-26.021 0-15.066 11.869-26.936 26.479-26.936zM267.979 346.435h302.218c14.608 0 26.021 11.413 26.021 26.021 0 15.066-11.413 26.936-26.021 26.936h-302.218c-14.61 0-26.479-11.869-26.479-26.936 0-14.608 11.869-26.021 26.479-26.021z" />
<glyph unicode="&#xe928;" glyph-name="comment_simple" horiz-adv-x="1170" d="M143.019 958.68c-39.351-5.080-73.267-25.053-96.478-53.982l-0.224-0.289c-16.366-20.743-24.126-36.811-30.543-63.075-3.98-16.167-3.93-496.791 0-514.351 10.609-45.493 40.157-82.571 79.676-103.11l0.859-0.406c29.846-14.725 33.975-15.221 134.159-16.316l88.047-0.945v-135.104c0-74.317 0.448-135.104 0.995-135.104 0.597 0 73.77 60.638 162.662 134.806l161.667 134.806 192.011 1.145c216.236 1.294 205.292 0.498 238.123 16.714 31.389 15.52 60.389 46.809 72.824 78.645 10.745 27.558 10.396 18.007 10.396 284.534v247.724l-5.571 17.907c-3.543 11.234-7.524 20.783-12.23 29.897l0.491-1.046c-19.948 35.716-54.37 63.324-92.274 74.118l-15.769 4.477-437.746 0.249c-240.76 0.149-443.714-0.448-451.077-1.294zM1017.166 859.242c13.132-2.487 24.623-10.247 32.582-21.987l5.969-8.855 0.547-240.76c0.597-267.77 1.492-249.863-12.933-264.687-4.682-4.56-10.057-8.442-15.944-11.466l-0.372-0.173c-9.054-4.228-10.197-4.228-213.649-4.775l-204.547-0.597-190.818-159.081v159.031l-132.816 0.597c-130.379 0.597-132.966 0.697-141.919 4.825-6.259 3.198-11.634 7.080-16.33 11.654l0.014-0.014c-14.426 14.824-13.53-3.084-12.933 264.687l0.547 240.76 5.969 8.855c7.611 11.242 19.35 19.549 30.841 21.788 12.933 2.537 852.261 2.686 865.791 0.199z" />
<glyph unicode="&#xe929;" glyph-name="enter_hollow" d="M512-64c280.091 0 512 232.409 512 512 0 280.094-232.409 512-512.5 512-279.594 0-511.5-231.906-511.5-512 0-279.591 232.408-512 512-512zM512 21.332c-236.926 0-426.164 189.741-426.164 426.668s188.737 426.667 425.664 426.667c236.923 0 427.168-189.741 427.168-426.667s-189.741-426.668-426.668-426.668zM769.506 448.5c0 11.047-4.018 19.077-14.056 29.118l-169.662 170.665c-6.526 6.526-15.562 10.038-26.1 10.038-20.585 0-36.141-15.559-36.141-36.138 0-11.047 4.515-20.079 11.041-27.109l62.747-62.244 60.735-50.697-105.915 4.018h-262.023c-21.584 0-37.647-15.562-37.647-37.65 0-21.585 16.063-37.141 37.647-37.141h262.023l105.915 3.509-60.735-50.697-62.747-62.241c-7.026-6.526-11.041-15.562-11.041-26.603 0-20.579 15.556-36.644 36.141-36.644 10.538 0 19.573 4.018 26.1 10.541l169.662 170.165c9.538 9.035 14.056 18.071 14.056 29.112z" />
<glyph unicode="&#xe92a;" glyph-name="enter_solid" d="M512-63.5c280.091 0 512 232.297 512 511.75 0 279.958-232.409 511.75-512.5 511.75-279.594 0-511.5-231.792-511.5-511.75 0-279.453 232.408-511.75 512-511.75zM778.041 448.75c0-11.535-4.521-20.567-14.559-30.103l-174.682-175.098c-7.026-7.020-16.065-11.035-27.106-11.035-21.585 0-37.647 16.556-37.647 38.129 0 11.038 4.518 20.57 11.547 27.594l64.25 63.72 62.744 52.176-109.426-4.012h-269.052c-22.588 0-39.153 16.053-39.153 38.629 0 23.082 16.565 39.138 39.153 39.138h269.052l109.426-4.518-62.744 52.176-64.25 63.72c-6.526 7.526-11.547 17.059-11.547 28.097 0 21.573 16.062 37.629 37.647 37.629 11.041 0 20.079-3.512 27.106-10.535l174.682-175.601c10.544-10.535 14.559-18.565 14.559-30.106z" />
<glyph unicode="&#xe92b;" glyph-name="heart_outline" horiz-adv-x="1077" d="M0 601.923c0-229.384 192.231-455 495.923-648.846 11.309-7 27.462-14.538 38.77-14.538 11.306 0 27.462 7.538 39.306 14.538 303.154 193.846 495.385 419.462 495.385 648.846 0 190.615-130.846 325.231-305.307 325.231-99.617 0-180.384-47.384-229.384-120.077-47.923 72.154-129.77 120.077-229.387 120.077-174.461 0-305.307-134.615-305.307-325.231zM86.692 601.923c0 143.231 92.615 238.539 217.538 238.539 101.232 0 159.384-63 193.846-116.846 14.538-21.538 23.694-27.461 36.617-27.461 12.921 0 21 6.461 36.615 27.461 37.153 52.769 93.152 116.846 193.846 116.846 124.923 0 217.54-95.308 217.54-238.539 0-200.308-211.616-416.23-436.694-565.923-5.385-3.77-9.153-6.462-11.306-6.462-2.156 0-5.923 2.691-10.77 6.462-225.616 149.693-437.231 365.615-437.231 565.923z" />
<glyph unicode="&#xe92c;" glyph-name="heart_solid" horiz-adv-x="1077" d="M534.693-61.461c11.306 0 27.462 7.538 39.306 14.538 303.154 193.846 495.385 419.462 495.385 648.846 0 190.615-130.846 325.231-299.922 325.231-105.002 0-185.769-58.154-234.769-147-47.923 88.308-129.77 147-234.769 147-169.078 0-299.924-134.615-299.924-325.231 0-229.384 192.231-455 495.923-648.846 11.309-7 27.462-14.538 38.77-14.538z" />
<glyph unicode="&#xe92d;" glyph-name="info_sansserif" horiz-adv-x="683" d="M308.176 788.252c-31.024-3.422-59.328-10.049-86.224-19.64l2.637 0.82c-15.887-5.816-51.228-23.072-64.377-31.382-43.705-28.731-79.981-65.007-107.847-107.314l-0.865-1.398c-8.309-13.149-25.565-48.49-31.382-64.377-19.601-53.378-25.125-115.751-15.495-174.163 2.835-17.207 9.874-44.237 15.495-59.488 5.963-16.131 23.17-51.472 31.382-64.377 28.743-43.694 65.017-79.968 107.313-107.846l1.399-0.866c27.766-17.091 59.853-31.117 93.895-40.407l2.596-0.604c81.827-20.237 162.824-11.585 237.073 25.32 35.194 17.548 59.587 35.244 88.817 64.426 29.182 29.231 46.877 53.622 64.426 88.817 36.905 74.251 45.557 155.246 25.32 237.073-9.894 36.638-23.921 68.725-41.932 98.107l0.921-1.615c-28.743 43.694-65.017 79.968-107.313 107.846l-1.399 0.866c-12.905 8.212-48.246 25.419-64.377 31.382-24.863 9.037-53.796 15.699-83.799 18.741l-1.548 0.127c-9.583 0.732-20.755 1.149-32.023 1.149-11.506 0-22.911-0.435-34.198-1.289l1.502 0.092zM357.693 666.635c25.076-6.696 33.288-21.361 33.239-59.587 0-27.373-3.47-39.936-13.834-49.956-8.163-7.968-16.815-10.509-35.684-10.509s-27.52 2.542-35.684 10.509c-10.362 10.021-13.834 22.583-13.834 49.956-0.049 37.883 8.115 52.694 32.555 59.537 7.869 2.15 25.223 2.2 33.239 0.049zM361.751 494.476c12.675-3.888 22.458-13.671 26.273-26.068l0.073-0.278c1.906-5.572 2.2-16.864 2.59-99.522 0.489-97.958 0.049-107.343-5.23-117.951-7.43-14.86-22.779-22.779-44.042-22.779-21.313 0-36.661 7.968-43.993 22.779-5.133 10.314-5.523 18.82-5.523 112.866 0.049 98.007 0.293 102.357 7.088 113.942 8.212 14.029 24.196 20.726 46.339 19.553 5.377-0.293 12.758-1.466 16.424-2.542z" />
<glyph unicode="&#xe92e;" glyph-name="info_serif" d="M510.001-59.999c278.999 0 509.998 231.5 509.998 509.998 0 279.001-231.5 510.001-510.498 510.001-278.501 0-509.501-231-509.501-510.001 0-278.499 231.5-509.998 510.001-509.998zM420.001 160.5c-21.502 0-38 15.501-38 37.001 0 20 16.499 36.501 38 36.501h63.5v234.998h-55.001c-20.999 0-37.5 15.501-37.5 37.001 0 20 16.501 36.501 37.5 36.501h97c26.5 0 40.499-19 40.499-47.002v-261.498h63.5c21.502 0 38-16.501 38-36.501 0-21.499-16.499-37.001-38-37.001h-209.498zM505.5 627.5c-37.5 0-67.501 30.001-67.501 68.001s30.001 67.999 67.501 67.999c37.5 0 66.999-30 66.999-67.999s-29.499-68.001-66.999-68.001z" />
<glyph unicode="&#xe92f;" glyph-name="share1" d="M512 959.999l-212.091-371.16h159.068v-301.564c0-29.285 23.739-53.023 53.023-53.023s53.023 23.738 53.023 53.023v301.564h159.068l-212.091 371.16zM64.62 535.817c29.284 0 53.023-23.739 53.023-53.023v-440.749h788.714v440.749c0 29.284 23.738 53.023 53.023 53.023s53.023-23.739 53.023-53.023v-493.772c0-29.285-23.738-53.023-53.023-53.023h-894.76c-29.284 0-53.023 23.738-53.023 53.023v493.772c0 29.284 23.739 53.023 53.023 53.023z" />
<glyph unicode="&#xe930;" glyph-name="thumbsdown" horiz-adv-x="959" d="M631.582 944.987c-10.097-1.972-21.786-8.956-30.434-18.151-9.076-9.645-17.296-22.926-36.326-58.564-41.529-77.879-86.36-143.808-185.051-272.101-55.665-72.367-67.568-88.689-82.583-113.374-35.281-57.993-51.318-109.999-56.639-183.507-5.63-78.117 10.074-144.496 47.706-201.683 49.869-75.717 131.928-124.658 237.343-141.527 30.577-4.894 59.822-6.509 117.65-6.486 130.313 0.071 183.056 9.1 213.775 36.611 25.183 22.57 31.337 60.94 14.991 93.227-4.989 9.836-4.276 14.564 2.637 17.438 8.577 3.564 22.784 13.566 30.766 21.715 26.562 27.037 30.458 73.816 8.98 107.173-9.408 14.588-9.004 15.846 9.052 29.437 9.955 7.484 19.030 20.812 24.471 35.922 3.468 9.669 4.086 14.089 4.086 29.769 0.024 25.73-4.728 40.674-18.437 58.017-3.421 4.348-6.225 8.506-6.225 9.242 0 0.76 3.968 5.916 8.861 11.475 16.512 18.84 24.257 41.505 22.57 66.118-2.447 35.875-24.946 65.216-58.54 76.358-10.24 3.397-13.21 3.516-115.345 4.419-95.983 0.831-105.51 1.164-112.851 3.825-27.274 9.931-40.816 28.296-40.816 55.404 0 23.045 8.030 48.538 38.061 120.881 35.447 85.434 45.52 124.303 41.624 160.676-4.3 39.985-39.438 65.549-79.328 57.685zM166.020 524.991c-71.845-13.044-131.264-78.591-154.95-170.986-8.838-34.497-11.095-53.313-11.071-92.348 0-28.629 0.618-37.87 3.659-55.047 11.285-64.028 35.020-112.542 74.553-152.385 23.901-24.091 44.428-37.538 72.866-47.754 24.067-8.648 28.937-9.195 88.712-10.026l55.926-0.784-11.903 9.574c-76.501 61.605-115.464 157.468-111.401 274.026 2.305 65.952 17.153 124.397 45.972 180.87 9.764 19.149 28.248 48.68 37.799 60.417l5.536 6.819-42.123-0.166c-26.965-0.071-46.233-0.879-53.574-2.21z" />
<glyph unicode="&#xe931;" glyph-name="thumbsup" horiz-adv-x="984" d="M228.538 957.785c-92.446-7.094-134.67-27.719-146.032-71.382-4.851-18.602-2.194-42.688 6.607-60.070 5.12-10.093 4.388-14.968-2.706-17.894-27.256-11.287-49.856-39.811-54.122-68.31-0.544-3.864-0.854-8.327-0.854-12.863 0-19.162 5.541-37.030 15.108-52.089l-0.235 0.396c8.728-13.579 7.898-17.114-6.412-26.963-37.958-26.159-45.004-91.861-13.872-129.259 3.511-4.193 6.363-8.801 6.363-10.264 0-1.438-3.121-5.754-6.924-9.532-10.117-10.142-17.212-21.502-20.941-33.521-15.164-49.124 8.972-98.687 55.658-114.265 10.532-3.511 13.262-3.608 118.287-4.51 98.639-0.829 108.219-1.17 115.728-3.901 17.723-6.485 29.377-16.164 37.276-30.937 3.389-6.339 3.754-9.167 3.632-27.573-0.219-27.963-4.388-41.639-36.374-119.020-35.886-86.839-46.345-124.748-44.321-160.634 0.951-16.919 4.12-27.743 11.531-39.421 18.040-28.475 61.63-37.641 89.74-18.87 12.677 8.436 22.527 21.722 38.739 52.050 53.488 100.247 95.884 162.829 214.78 317.076 17.748 23.014 38.275 50.27 45.614 60.533 60.607 84.888 85.157 160.488 85.279 262.857 0.073 45.443-5.339 75.332-20.746 114.899-21.917 56.34-66.36 108.194-122.725 143.228-48.173 29.938-107.512 49.368-176.822 57.925-24.647 3.047-160.269 4.68-191.254 2.316zM693.132 901.639c25.967-21.436 48.083-46.306 65.989-74.14l0.761-1.264c59.339-95.494 64.19-241.939 12.044-364.103-12.117-28.378-35.862-68.774-52.806-89.886l-4.29-5.339h41.86c55.414 0 71.358 2.779 100.759 17.504 104.538 52.367 155.93 223.289 109.195 363.079-24.525 73.333-76.063 131.184-136.304 152.98-26.549 9.606-30.718 10.093-92.885 10.97l-57.388 0.804 13.067-10.605z" />
<glyph unicode="&#xe932;" glyph-name="bank" horiz-adv-x="1056" d="M-0.242-24.251c0-21.61 17.682-39.783 39.293-39.783h977.408c21.61 0 39.783 18.173 39.783 39.783 0 21.612-18.173 39.295-39.783 39.295h-977.408c-21.611 0-39.293-17.682-39.293-39.295zM85.711 538.128c0-20.137 11.297-31.434 31.434-31.434h125.738c20.137 0 31.925 11.297 31.925 31.434v11.788c0 19.155-11.788 30.943-31.925 30.943h-125.738c-20.138 0-31.434-11.788-31.434-30.943zM143.177 118.186h74.165v415.030h-74.165zM85.711 89.7c0-20.139 11.297-31.434 31.434-31.434h125.738c20.137 0 31.925 11.295 31.925 31.434v11.786c0 19.155-11.788 30.943-31.925 30.943h-125.738c-20.138 0-31.434-11.788-31.434-30.943zM319.012 538.128c0-20.137 11.788-31.434 31.434-31.434h126.228c19.646 0 31.434 11.297 31.434 31.434v11.788c0 19.155-11.788 30.943-31.434 30.943h-126.228c-19.646 0-31.434-11.788-31.434-30.943zM376.969 118.186h74.166v415.030h-74.166zM319.012 89.7c0-20.139 11.788-31.434 31.434-31.434h126.228c19.646 0 31.434 11.295 31.434 31.434v11.786c0 19.155-11.788 30.943-31.434 30.943h-126.228c-19.646 0-31.434-11.788-31.434-30.943zM552.804 538.128c0-20.137 11.788-31.434 31.434-31.434h126.228c19.646 0 31.434 11.297 31.434 31.434v11.788c0 19.155-11.788 30.943-31.434 30.943h-126.228c-19.646 0-31.434-11.788-31.434-30.943zM610.76 118.186h74.166v415.030h-74.166zM552.804 89.7c0-20.139 11.788-31.434 31.434-31.434h126.228c19.646 0 31.434 11.295 31.434 31.434v11.786c0 19.155-11.788 30.943-31.434 30.943h-126.228c-19.646 0-31.434-11.788-31.434-30.943zM786.595 538.128c0-20.137 11.297-31.434 31.434-31.434h125.737c20.137 0 31.434 11.297 31.434 31.434v11.788c0 19.155-11.297 30.943-31.434 30.943h-125.737c-20.137 0-31.434-11.788-31.434-30.943zM844.061 118.186h74.166v415.030h-74.166zM786.595 89.7c0-20.139 11.297-31.434 31.434-31.434h125.737c20.137 0 31.434 11.295 31.434 31.434v11.786c0 19.155-11.297 30.943-31.434 30.943h-125.737c-20.137 0-31.434-11.788-31.434-30.943zM64.591 623.588h926.328c27.013 0 42.729 19.648 42.729 39.786 0 14.734-7.858 27.504-26.031 37.819l-419.449 241.65c-19.648 11.297-40.277 17.191-60.414 17.191s-40.765-5.894-60.414-17.191l-419.449-241.65c-18.173-10.315-26.032-23.085-26.032-37.819 0-20.137 15.226-39.786 42.731-39.786z" />
<glyph unicode="&#xe933;" glyph-name="doc" horiz-adv-x="777" d="M143.204-47.213h490.592c95.627 0 143.205 48.506 143.205 144.594v419.45h-334.45c-59.13 0-87.311 28.18-87.311 87.309v339.074h-212.037c-95.162 0-143.205-48.967-143.205-145.053v-700.782c0-96.55 47.581-144.594 143.205-144.594zM443.935 580.12h327.524c-2.773 18.939-16.169 37.417-38.342 60.053l-254.535 259.155c-21.714 22.174-40.655 35.57-60.056 38.804v-333.068c0-16.63 8.314-24.944 25.408-24.944z" />
</font>
</defs>
</svg>
