<svg width="335" height="42" viewBox="0 0 335 42" fill="none" xmlns="http://www.w3.org/2000/svg">
<rect x="222.5" y="0.5" width="112" height="41" fill="white" stroke="#CCCCCC"/>
<path d="M109.5 0.5H222.112L232.44 20.5054L222.105 41.5H109.5V0.5Z" fill="white" stroke="#CCCCCC"/>
<path d="M139.377 21.09H141.097C141.457 21.09 141.727 21.01 141.907 20.85C142.087 20.69 142.177 20.43 142.177 20.07C142.177 19.7233 142.087 19.4733 141.907 19.32C141.727 19.16 141.457 19.08 141.097 19.08H139.377V21.09ZM137.807 17.86H141.657C141.977 17.86 142.263 17.9133 142.517 18.02C142.777 18.12 142.997 18.26 143.177 18.44C143.363 18.62 143.503 18.83 143.597 19.07C143.697 19.3033 143.747 19.5567 143.747 19.83C143.747 20.25 143.657 20.6133 143.477 20.92C143.303 21.2267 143.017 21.46 142.617 21.62V21.64C142.81 21.6933 142.97 21.7767 143.097 21.89C143.223 21.9967 143.327 22.1267 143.407 22.28C143.487 22.4267 143.543 22.59 143.577 22.77C143.617 22.95 143.643 23.13 143.657 23.31C143.663 23.4233 143.67 23.5567 143.677 23.71C143.683 23.8633 143.693 24.02 143.707 24.18C143.727 24.34 143.753 24.4933 143.787 24.64C143.827 24.78 143.883 24.9 143.957 25H142.387C142.3 24.7733 142.247 24.5033 142.227 24.19C142.207 23.8767 142.177 23.5767 142.137 23.29C142.083 22.9167 141.97 22.6433 141.797 22.47C141.623 22.2967 141.34 22.21 140.947 22.21H139.377V25H137.807V17.86ZM146.624 17.86H151.964V19.18H148.194V20.71H151.654V21.93H148.194V23.68H152.044V25H146.624V17.86ZM155.778 22.63C155.778 22.87 155.821 23.0733 155.908 23.24C155.995 23.4067 156.108 23.5433 156.248 23.65C156.395 23.75 156.565 23.8267 156.758 23.88C156.951 23.9267 157.151 23.95 157.358 23.95C157.498 23.95 157.648 23.94 157.808 23.92C157.968 23.8933 158.118 23.8467 158.258 23.78C158.398 23.7133 158.515 23.6233 158.608 23.51C158.701 23.39 158.748 23.24 158.748 23.06C158.748 22.8667 158.685 22.71 158.558 22.59C158.438 22.47 158.278 22.37 158.078 22.29C157.878 22.21 157.651 22.14 157.398 22.08C157.145 22.02 156.888 21.9533 156.628 21.88C156.361 21.8133 156.101 21.7333 155.848 21.64C155.595 21.54 155.368 21.4133 155.168 21.26C154.968 21.1067 154.805 20.9167 154.678 20.69C154.558 20.4567 154.498 20.1767 154.498 19.85C154.498 19.4833 154.575 19.1667 154.728 18.9C154.888 18.6267 155.095 18.4 155.348 18.22C155.601 18.04 155.888 17.9067 156.208 17.82C156.528 17.7333 156.848 17.69 157.168 17.69C157.541 17.69 157.898 17.7333 158.238 17.82C158.585 17.9 158.891 18.0333 159.158 18.22C159.425 18.4067 159.635 18.6467 159.788 18.94C159.948 19.2267 160.028 19.5767 160.028 19.99H158.508C158.495 19.7767 158.448 19.6 158.368 19.46C158.295 19.32 158.195 19.21 158.068 19.13C157.941 19.05 157.795 18.9933 157.628 18.96C157.468 18.9267 157.291 18.91 157.098 18.91C156.971 18.91 156.845 18.9233 156.718 18.95C156.591 18.9767 156.475 19.0233 156.368 19.09C156.268 19.1567 156.185 19.24 156.118 19.34C156.051 19.44 156.018 19.5667 156.018 19.72C156.018 19.86 156.045 19.9733 156.098 20.06C156.151 20.1467 156.255 20.2267 156.408 20.3C156.568 20.3733 156.785 20.4467 157.058 20.52C157.338 20.5933 157.701 20.6867 158.148 20.8C158.281 20.8267 158.465 20.8767 158.698 20.95C158.938 21.0167 159.175 21.1267 159.408 21.28C159.641 21.4333 159.841 21.64 160.008 21.9C160.181 22.1533 160.268 22.48 160.268 22.88C160.268 23.2067 160.205 23.51 160.078 23.79C159.951 24.07 159.761 24.3133 159.508 24.52C159.261 24.72 158.951 24.8767 158.578 24.99C158.211 25.1033 157.785 25.16 157.298 25.16C156.905 25.16 156.521 25.11 156.148 25.01C155.781 24.9167 155.455 24.7667 155.168 24.56C154.888 24.3533 154.665 24.09 154.498 23.77C154.331 23.45 154.251 23.07 154.258 22.63H155.778ZM162.802 17.86H168.142V19.18H164.372V20.71H167.832V21.93H164.372V23.68H168.222V25H162.802V17.86ZM172.686 22.24H174.536L173.636 19.62H173.616L172.686 22.24ZM172.836 17.86H174.446L177.116 25H175.486L174.946 23.41H172.276L171.716 25H170.136L172.836 17.86ZM180.902 21.09H182.622C182.982 21.09 183.252 21.01 183.432 20.85C183.612 20.69 183.702 20.43 183.702 20.07C183.702 19.7233 183.612 19.4733 183.432 19.32C183.252 19.16 182.982 19.08 182.622 19.08H180.902V21.09ZM179.332 17.86H183.182C183.502 17.86 183.789 17.9133 184.042 18.02C184.302 18.12 184.522 18.26 184.702 18.44C184.889 18.62 185.029 18.83 185.122 19.07C185.222 19.3033 185.272 19.5567 185.272 19.83C185.272 20.25 185.182 20.6133 185.002 20.92C184.829 21.2267 184.542 21.46 184.142 21.62V21.64C184.336 21.6933 184.496 21.7767 184.622 21.89C184.749 21.9967 184.852 22.1267 184.932 22.28C185.012 22.4267 185.069 22.59 185.102 22.77C185.142 22.95 185.169 23.13 185.182 23.31C185.189 23.4233 185.196 23.5567 185.202 23.71C185.209 23.8633 185.219 24.02 185.232 24.18C185.252 24.34 185.279 24.4933 185.312 24.64C185.352 24.78 185.409 24.9 185.482 25H183.912C183.826 24.7733 183.772 24.5033 183.752 24.19C183.732 23.8767 183.702 23.5767 183.662 23.29C183.609 22.9167 183.496 22.6433 183.322 22.47C183.149 22.2967 182.866 22.21 182.472 22.21H180.902V25H179.332V17.86ZM192.909 20.26C192.882 20.08 192.822 19.9167 192.729 19.77C192.636 19.6167 192.519 19.4833 192.379 19.37C192.239 19.2567 192.079 19.17 191.899 19.11C191.726 19.0433 191.542 19.01 191.349 19.01C190.996 19.01 190.696 19.08 190.449 19.22C190.202 19.3533 190.002 19.5367 189.849 19.77C189.696 19.9967 189.582 20.2567 189.509 20.55C189.442 20.8433 189.409 21.1467 189.409 21.46C189.409 21.76 189.442 22.0533 189.509 22.34C189.582 22.62 189.696 22.8733 189.849 23.1C190.002 23.3267 190.202 23.51 190.449 23.65C190.696 23.7833 190.996 23.85 191.349 23.85C191.829 23.85 192.202 23.7033 192.469 23.41C192.742 23.1167 192.909 22.73 192.969 22.25H194.489C194.449 22.6967 194.346 23.1 194.179 23.46C194.012 23.82 193.792 24.1267 193.519 24.38C193.246 24.6333 192.926 24.8267 192.559 24.96C192.192 25.0933 191.789 25.16 191.349 25.16C190.802 25.16 190.309 25.0667 189.869 24.88C189.436 24.6867 189.069 24.4233 188.769 24.09C188.469 23.7567 188.239 23.3667 188.079 22.92C187.919 22.4667 187.839 21.98 187.839 21.46C187.839 20.9267 187.919 20.4333 188.079 19.98C188.239 19.52 188.469 19.12 188.769 18.78C189.069 18.44 189.436 18.1733 189.869 17.98C190.309 17.7867 190.802 17.69 191.349 17.69C191.742 17.69 192.112 17.7467 192.459 17.86C192.812 17.9733 193.126 18.14 193.399 18.36C193.679 18.5733 193.909 18.84 194.089 19.16C194.269 19.48 194.382 19.8467 194.429 20.26H192.909ZM197.161 17.86H198.731V20.6H201.621V17.86H203.191V25H201.621V21.92H198.731V25H197.161V17.86Z" fill="#CCCCCC"/>
<path d="M263.96 17.86H265.53V23.68H269.01V25H263.96V17.86ZM271.488 17.86H273.058V25H271.488V17.86ZM279.357 25H277.587L275.277 17.86H276.887L278.477 22.88H278.497L280.107 17.86H281.727L279.357 25ZM283.936 17.86H289.276V19.18H285.506V20.71H288.966V21.93H285.506V23.68H289.356V25H283.936V17.86Z" fill="#CCCCCC"/>
<path d="M0 0H111.91L123 21L111.91 42H0V0Z" fill="#FDCC1E"/>
<path d="M42.01 25H40.24L37.93 17.86H39.54L41.13 22.88H41.15L42.76 17.86H44.38L42.01 25ZM47.8488 21.46C47.8488 21.76 47.8822 22.0533 47.9488 22.34C48.0222 22.62 48.1355 22.8733 48.2888 23.1C48.4422 23.3267 48.6422 23.51 48.8888 23.65C49.1355 23.7833 49.4355 23.85 49.7888 23.85C50.1422 23.85 50.4422 23.7833 50.6888 23.65C50.9355 23.51 51.1355 23.3267 51.2888 23.1C51.4422 22.8733 51.5522 22.62 51.6188 22.34C51.6922 22.0533 51.7288 21.76 51.7288 21.46C51.7288 21.1467 51.6922 20.8433 51.6188 20.55C51.5522 20.2567 51.4422 19.9967 51.2888 19.77C51.1355 19.5367 50.9355 19.3533 50.6888 19.22C50.4422 19.08 50.1422 19.01 49.7888 19.01C49.4355 19.01 49.1355 19.08 48.8888 19.22C48.6422 19.3533 48.4422 19.5367 48.2888 19.77C48.1355 19.9967 48.0222 20.2567 47.9488 20.55C47.8822 20.8433 47.8488 21.1467 47.8488 21.46ZM46.2788 21.46C46.2788 20.9267 46.3588 20.4333 46.5188 19.98C46.6788 19.52 46.9088 19.12 47.2088 18.78C47.5088 18.44 47.8755 18.1733 48.3088 17.98C48.7488 17.7867 49.2422 17.69 49.7888 17.69C50.3422 17.69 50.8355 17.7867 51.2688 17.98C51.7022 18.1733 52.0688 18.44 52.3688 18.78C52.6688 19.12 52.8988 19.52 53.0588 19.98C53.2188 20.4333 53.2988 20.9267 53.2988 21.46C53.2988 21.98 53.2188 22.4667 53.0588 22.92C52.8988 23.3667 52.6688 23.7567 52.3688 24.09C52.0688 24.4233 51.7022 24.6867 51.2688 24.88C50.8355 25.0667 50.3422 25.16 49.7888 25.16C49.2422 25.16 48.7488 25.0667 48.3088 24.88C47.8755 24.6867 47.5088 24.4233 47.2088 24.09C46.9088 23.7567 46.6788 23.3667 46.5188 22.92C46.3588 22.4667 46.2788 21.98 46.2788 21.46ZM57.552 19.18H55.412V17.86H61.262V19.18H59.122V25H57.552V19.18ZM63.6853 17.86H65.2553V25H63.6853V17.86ZM68.2345 17.86H69.7945L72.7745 22.65H72.7945V17.86H74.2645V25H72.6945L69.7245 20.22H69.7045V25H68.2345V17.86ZM82.4066 24.19C82.1266 24.55 81.8166 24.8033 81.4766 24.95C81.1366 25.09 80.7933 25.16 80.4466 25.16C79.9 25.16 79.4066 25.0667 78.9666 24.88C78.5333 24.6867 78.1666 24.4233 77.8666 24.09C77.5666 23.7567 77.3366 23.3667 77.1766 22.92C77.0166 22.4667 76.9366 21.98 76.9366 21.46C76.9366 20.9267 77.0166 20.4333 77.1766 19.98C77.3366 19.52 77.5666 19.12 77.8666 18.78C78.1666 18.44 78.5333 18.1733 78.9666 17.98C79.4066 17.7867 79.9 17.69 80.4466 17.69C80.8133 17.69 81.1666 17.7467 81.5066 17.86C81.8533 17.9667 82.1633 18.1267 82.4366 18.34C82.7166 18.5533 82.9466 18.8167 83.1266 19.13C83.3066 19.4433 83.4166 19.8033 83.4566 20.21H81.9566C81.8633 19.81 81.6833 19.51 81.4166 19.31C81.15 19.11 80.8266 19.01 80.4466 19.01C80.0933 19.01 79.7933 19.08 79.5466 19.22C79.3 19.3533 79.1 19.5367 78.9466 19.77C78.7933 19.9967 78.68 20.2567 78.6066 20.55C78.54 20.8433 78.5066 21.1467 78.5066 21.46C78.5066 21.76 78.54 22.0533 78.6066 22.34C78.68 22.62 78.7933 22.8733 78.9466 23.1C79.1 23.3267 79.3 23.51 79.5466 23.65C79.7933 23.7833 80.0933 23.85 80.4466 23.85C80.9666 23.85 81.3666 23.72 81.6466 23.46C81.9333 23.1933 82.1 22.81 82.1466 22.31H80.5666V21.14H83.5666V25H82.5666L82.4066 24.19Z" fill="#333333"/>
</svg>
