<svg width="335" height="42" viewBox="0 0 335 42" fill="none" xmlns="http://www.w3.org/2000/svg">
<rect x="222.5" y="0.5" width="112" height="41" fill="#2C1C8E" stroke="#2C1C8E"/>
<path d="M109.5 0.5H222.112L232.44 20.5054L222.105 41.5H109.5V0.5Z" fill="#FF6B6B" stroke="#FF9330"/>
<path d="M134.329 21.09H136.049C136.409 21.09 136.679 21.01 136.859 20.85C137.039 20.69 137.129 20.43 137.129 20.07C137.129 19.7233 137.039 19.4733 136.859 19.32C136.679 19.16 136.409 19.08 136.049 19.08H134.329V21.09ZM132.759 17.86H136.609C136.929 17.86 137.215 17.9133 137.469 18.02C137.729 18.12 137.949 18.26 138.129 18.44C138.315 18.62 138.455 18.83 138.549 19.07C138.649 19.3033 138.699 19.5567 138.699 19.83C138.699 20.25 138.609 20.6133 138.429 20.92C138.255 21.2267 137.969 21.46 137.569 21.62V21.64C137.762 21.6933 137.922 21.7767 138.049 21.89C138.175 21.9967 138.279 22.1267 138.359 22.28C138.439 22.4267 138.495 22.59 138.529 22.77C138.569 22.95 138.595 23.13 138.609 23.31C138.615 23.4233 138.622 23.5567 138.629 23.71C138.635 23.8633 138.645 24.02 138.659 24.18C138.679 24.34 138.705 24.4933 138.739 24.64C138.779 24.78 138.835 24.9 138.909 25H137.339C137.252 24.7733 137.199 24.5033 137.179 24.19C137.159 23.8767 137.129 23.5767 137.089 23.29C137.035 22.9167 136.922 22.6433 136.749 22.47C136.575 22.2967 136.292 22.21 135.899 22.21H134.329V25H132.759V17.86ZM141.575 17.86H146.915V19.18H143.145V20.71H146.605V21.93H143.145V23.68H146.995V25H141.575V17.86ZM150.73 22.63C150.73 22.87 150.773 23.0733 150.86 23.24C150.946 23.4067 151.06 23.5433 151.2 23.65C151.346 23.75 151.516 23.8267 151.71 23.88C151.903 23.9267 152.103 23.95 152.31 23.95C152.45 23.95 152.6 23.94 152.76 23.92C152.92 23.8933 153.07 23.8467 153.21 23.78C153.35 23.7133 153.466 23.6233 153.56 23.51C153.653 23.39 153.7 23.24 153.7 23.06C153.7 22.8667 153.636 22.71 153.51 22.59C153.39 22.47 153.23 22.37 153.03 22.29C152.83 22.21 152.603 22.14 152.35 22.08C152.096 22.02 151.84 21.9533 151.58 21.88C151.313 21.8133 151.053 21.7333 150.8 21.64C150.546 21.54 150.32 21.4133 150.12 21.26C149.92 21.1067 149.756 20.9167 149.63 20.69C149.51 20.4567 149.45 20.1767 149.45 19.85C149.45 19.4833 149.526 19.1667 149.68 18.9C149.84 18.6267 150.046 18.4 150.3 18.22C150.553 18.04 150.84 17.9067 151.16 17.82C151.48 17.7333 151.8 17.69 152.12 17.69C152.493 17.69 152.85 17.7333 153.19 17.82C153.536 17.9 153.843 18.0333 154.11 18.22C154.376 18.4067 154.586 18.6467 154.74 18.94C154.9 19.2267 154.98 19.5767 154.98 19.99H153.46C153.446 19.7767 153.4 19.6 153.32 19.46C153.246 19.32 153.146 19.21 153.02 19.13C152.893 19.05 152.746 18.9933 152.58 18.96C152.42 18.9267 152.243 18.91 152.05 18.91C151.923 18.91 151.796 18.9233 151.67 18.95C151.543 18.9767 151.426 19.0233 151.32 19.09C151.22 19.1567 151.136 19.24 151.07 19.34C151.003 19.44 150.97 19.5667 150.97 19.72C150.97 19.86 150.996 19.9733 151.05 20.06C151.103 20.1467 151.206 20.2267 151.36 20.3C151.52 20.3733 151.736 20.4467 152.01 20.52C152.29 20.5933 152.653 20.6867 153.1 20.8C153.233 20.8267 153.416 20.8767 153.65 20.95C153.89 21.0167 154.126 21.1267 154.36 21.28C154.593 21.4333 154.793 21.64 154.96 21.9C155.133 22.1533 155.22 22.48 155.22 22.88C155.22 23.2067 155.156 23.51 155.03 23.79C154.903 24.07 154.713 24.3133 154.46 24.52C154.213 24.72 153.903 24.8767 153.53 24.99C153.163 25.1033 152.736 25.16 152.25 25.16C151.856 25.16 151.473 25.11 151.1 25.01C150.733 24.9167 150.406 24.7667 150.12 24.56C149.84 24.3533 149.616 24.09 149.45 23.77C149.283 23.45 149.203 23.07 149.21 22.63H150.73ZM157.754 17.86H163.094V19.18H159.324V20.71H162.784V21.93H159.324V23.68H163.174V25H157.754V17.86ZM167.638 22.24H169.488L168.588 19.62H168.568L167.638 22.24ZM167.788 17.86H169.398L172.068 25H170.438L169.898 23.41H167.228L166.668 25H165.088L167.788 17.86ZM175.854 21.09H177.574C177.934 21.09 178.204 21.01 178.384 20.85C178.564 20.69 178.654 20.43 178.654 20.07C178.654 19.7233 178.564 19.4733 178.384 19.32C178.204 19.16 177.934 19.08 177.574 19.08H175.854V21.09ZM174.284 17.86H178.134C178.454 17.86 178.741 17.9133 178.994 18.02C179.254 18.12 179.474 18.26 179.654 18.44C179.841 18.62 179.981 18.83 180.074 19.07C180.174 19.3033 180.224 19.5567 180.224 19.83C180.224 20.25 180.134 20.6133 179.954 20.92C179.781 21.2267 179.494 21.46 179.094 21.62V21.64C179.287 21.6933 179.447 21.7767 179.574 21.89C179.701 21.9967 179.804 22.1267 179.884 22.28C179.964 22.4267 180.021 22.59 180.054 22.77C180.094 22.95 180.121 23.13 180.134 23.31C180.141 23.4233 180.147 23.5567 180.154 23.71C180.161 23.8633 180.171 24.02 180.184 24.18C180.204 24.34 180.231 24.4933 180.264 24.64C180.304 24.78 180.361 24.9 180.434 25H178.864C178.777 24.7733 178.724 24.5033 178.704 24.19C178.684 23.8767 178.654 23.5767 178.614 23.29C178.561 22.9167 178.447 22.6433 178.274 22.47C178.101 22.2967 177.817 22.21 177.424 22.21H175.854V25H174.284V17.86ZM187.861 20.26C187.834 20.08 187.774 19.9167 187.681 19.77C187.587 19.6167 187.471 19.4833 187.331 19.37C187.191 19.2567 187.031 19.17 186.851 19.11C186.677 19.0433 186.494 19.01 186.301 19.01C185.947 19.01 185.647 19.08 185.401 19.22C185.154 19.3533 184.954 19.5367 184.801 19.77C184.647 19.9967 184.534 20.2567 184.461 20.55C184.394 20.8433 184.361 21.1467 184.361 21.46C184.361 21.76 184.394 22.0533 184.461 22.34C184.534 22.62 184.647 22.8733 184.801 23.1C184.954 23.3267 185.154 23.51 185.401 23.65C185.647 23.7833 185.947 23.85 186.301 23.85C186.781 23.85 187.154 23.7033 187.421 23.41C187.694 23.1167 187.861 22.73 187.921 22.25H189.441C189.401 22.6967 189.297 23.1 189.131 23.46C188.964 23.82 188.744 24.1267 188.471 24.38C188.197 24.6333 187.877 24.8267 187.511 24.96C187.144 25.0933 186.741 25.16 186.301 25.16C185.754 25.16 185.261 25.0667 184.821 24.88C184.387 24.6867 184.021 24.4233 183.721 24.09C183.421 23.7567 183.191 23.3667 183.031 22.92C182.871 22.4667 182.791 21.98 182.791 21.46C182.791 20.9267 182.871 20.4333 183.031 19.98C183.191 19.52 183.421 19.12 183.721 18.78C184.021 18.44 184.387 18.1733 184.821 17.98C185.261 17.7867 185.754 17.69 186.301 17.69C186.694 17.69 187.064 17.7467 187.411 17.86C187.764 17.9733 188.077 18.14 188.351 18.36C188.631 18.5733 188.861 18.84 189.041 19.16C189.221 19.48 189.334 19.8467 189.381 20.26H187.861ZM192.113 17.86H193.683V20.6H196.573V17.86H198.143V25H196.573V21.92H193.683V25H192.113V17.86ZM201.125 17.86H206.465V19.18H202.695V20.71H206.155V21.93H202.695V23.68H206.545V25H201.125V17.86ZM210.779 23.68H212.179C212.406 23.68 212.626 23.6433 212.839 23.57C213.053 23.4967 213.243 23.3767 213.409 23.21C213.576 23.0367 213.709 22.8133 213.809 22.54C213.909 22.2667 213.959 21.9333 213.959 21.54C213.959 21.18 213.923 20.8567 213.849 20.57C213.783 20.2767 213.669 20.0267 213.509 19.82C213.349 19.6133 213.136 19.4567 212.869 19.35C212.609 19.2367 212.286 19.18 211.899 19.18H210.779V23.68ZM209.209 17.86H212.289C212.749 17.86 213.176 17.9333 213.569 18.08C213.969 18.2267 214.313 18.4467 214.599 18.74C214.893 19.0333 215.119 19.4 215.279 19.84C215.446 20.28 215.529 20.7967 215.529 21.39C215.529 21.91 215.463 22.39 215.329 22.83C215.196 23.27 214.993 23.65 214.719 23.97C214.453 24.29 214.116 24.5433 213.709 24.73C213.309 24.91 212.836 25 212.289 25H209.209V17.86Z" fill="#CCCCCC"/>
<path d="M263.96 17.86H265.53V23.68H269.01V25H263.96V17.86ZM271.488 17.86H273.058V25H271.488V17.86ZM279.357 25H277.587L275.277 17.86H276.887L278.477 22.88H278.497L280.107 17.86H281.727L279.357 25ZM283.936 17.86H289.276V19.18H285.506V20.71H288.966V21.93H285.506V23.68H289.356V25H283.936V17.86Z" fill="white"/>
<path d="M0 0H111.91L123 21L111.91 42H0V0Z" fill="#FDCC1E"/>
<path d="M44.01 25H42.24L39.93 17.86H41.54L43.13 22.88H43.15L44.76 17.86H46.38L44.01 25ZM49.8488 21.46C49.8488 21.76 49.8822 22.0533 49.9488 22.34C50.0222 22.62 50.1355 22.8733 50.2888 23.1C50.4422 23.3267 50.6422 23.51 50.8888 23.65C51.1355 23.7833 51.4355 23.85 51.7888 23.85C52.1422 23.85 52.4422 23.7833 52.6888 23.65C52.9355 23.51 53.1355 23.3267 53.2888 23.1C53.4422 22.8733 53.5522 22.62 53.6188 22.34C53.6922 22.0533 53.7288 21.76 53.7288 21.46C53.7288 21.1467 53.6922 20.8433 53.6188 20.55C53.5522 20.2567 53.4422 19.9967 53.2888 19.77C53.1355 19.5367 52.9355 19.3533 52.6888 19.22C52.4422 19.08 52.1422 19.01 51.7888 19.01C51.4355 19.01 51.1355 19.08 50.8888 19.22C50.6422 19.3533 50.4422 19.5367 50.2888 19.77C50.1355 19.9967 50.0222 20.2567 49.9488 20.55C49.8822 20.8433 49.8488 21.1467 49.8488 21.46ZM48.2788 21.46C48.2788 20.9267 48.3588 20.4333 48.5188 19.98C48.6788 19.52 48.9088 19.12 49.2088 18.78C49.5088 18.44 49.8755 18.1733 50.3088 17.98C50.7488 17.7867 51.2422 17.69 51.7888 17.69C52.3422 17.69 52.8355 17.7867 53.2688 17.98C53.7022 18.1733 54.0688 18.44 54.3688 18.78C54.6688 19.12 54.8988 19.52 55.0588 19.98C55.2188 20.4333 55.2988 20.9267 55.2988 21.46C55.2988 21.98 55.2188 22.4667 55.0588 22.92C54.8988 23.3667 54.6688 23.7567 54.3688 24.09C54.0688 24.4233 53.7022 24.6867 53.2688 24.88C52.8355 25.0667 52.3422 25.16 51.7888 25.16C51.2422 25.16 50.7488 25.0667 50.3088 24.88C49.8755 24.6867 49.5088 24.4233 49.2088 24.09C48.9088 23.7567 48.6788 23.3667 48.5188 22.92C48.3588 22.4667 48.2788 21.98 48.2788 21.46ZM59.552 19.18H57.412V17.86H63.262V19.18H61.122V25H59.552V19.18ZM65.6853 17.86H71.0253V19.18H67.2553V20.71H70.7153V21.93H67.2553V23.68H71.1053V25H65.6853V17.86ZM75.3397 23.68H76.7397C76.9664 23.68 77.1864 23.6433 77.3997 23.57C77.613 23.4967 77.803 23.3767 77.9697 23.21C78.1364 23.0367 78.2697 22.8133 78.3697 22.54C78.4697 22.2667 78.5197 21.9333 78.5197 21.54C78.5197 21.18 78.483 20.8567 78.4097 20.57C78.343 20.2767 78.2297 20.0267 78.0697 19.82C77.9097 19.6133 77.6964 19.4567 77.4297 19.35C77.1697 19.2367 76.8464 19.18 76.4597 19.18H75.3397V23.68ZM73.7697 17.86H76.8497C77.3097 17.86 77.7364 17.9333 78.1297 18.08C78.5297 18.2267 78.873 18.4467 79.1597 18.74C79.453 19.0333 79.6797 19.4 79.8397 19.84C80.0064 20.28 80.0897 20.7967 80.0897 21.39C80.0897 21.91 80.023 22.39 79.8897 22.83C79.7564 23.27 79.553 23.65 79.2797 23.97C79.013 24.29 78.6764 24.5433 78.2697 24.73C77.8697 24.91 77.3964 25 76.8497 25H73.7697V17.86Z" fill="#999999"/>
</svg>
