<svg width="335" height="42" viewBox="0 0 335 42" fill="none" xmlns="http://www.w3.org/2000/svg">
<rect x="222.5" y="0.5" width="112" height="41" fill="white" stroke="#FDCC1E"/>
<path d="M109.5 0.5H222.112L232.44 20.5054L222.105 41.5H109.5V0.5Z" fill="#FF6B6B" stroke="#FF9330"/>
<path d="M131.502 21.09V19.08H133.222C133.582 19.08 133.852 19.16 134.032 19.32C134.212 19.4733 134.302 19.7233 134.302 20.07C134.302 20.43 134.212 20.69 134.032 20.85C133.852 21.01 133.582 21.09 133.222 21.09H131.502ZM129.932 17.86V25H131.502V22.21H133.072C133.466 22.21 133.749 22.2967 133.922 22.47C134.096 22.6433 134.209 22.9167 134.262 23.29C134.302 23.5767 134.332 23.8767 134.352 24.19C134.372 24.5033 134.426 24.7733 134.512 25H136.082C136.009 24.9 135.952 24.78 135.912 24.64C135.879 24.4933 135.852 24.34 135.832 24.18C135.819 24.02 135.809 23.8633 135.802 23.71C135.796 23.5567 135.789 23.4233 135.782 23.31C135.769 23.13 135.742 22.95 135.702 22.77C135.669 22.59 135.612 22.4267 135.532 22.28C135.452 22.1267 135.349 21.9967 135.222 21.89C135.096 21.7767 134.936 21.6933 134.742 21.64V21.62C135.142 21.46 135.429 21.2267 135.602 20.92C135.782 20.6133 135.872 20.25 135.872 19.83C135.872 19.5567 135.822 19.3033 135.722 19.07C135.629 18.83 135.489 18.62 135.302 18.44C135.122 18.26 134.902 18.12 134.642 18.02C134.389 17.9133 134.102 17.86 133.782 17.86H129.932ZM138.749 17.86V25H144.169V23.68H140.319V21.93H143.779V20.71H140.319V19.18H144.089V17.86H138.749ZM147.903 22.63H146.383C146.377 23.07 146.457 23.45 146.623 23.77C146.79 24.09 147.013 24.3533 147.293 24.56C147.58 24.7667 147.907 24.9167 148.273 25.01C148.647 25.11 149.03 25.16 149.423 25.16C149.91 25.16 150.337 25.1033 150.703 24.99C151.077 24.8767 151.387 24.72 151.633 24.52C151.887 24.3133 152.077 24.07 152.203 23.79C152.33 23.51 152.393 23.2067 152.393 22.88C152.393 22.48 152.307 22.1533 152.133 21.9C151.967 21.64 151.767 21.4333 151.533 21.28C151.3 21.1267 151.063 21.0167 150.823 20.95C150.59 20.8767 150.407 20.8267 150.273 20.8C149.827 20.6867 149.463 20.5933 149.183 20.52C148.91 20.4467 148.693 20.3733 148.533 20.3C148.38 20.2267 148.277 20.1467 148.223 20.06C148.17 19.9733 148.143 19.86 148.143 19.72C148.143 19.5667 148.177 19.44 148.243 19.34C148.31 19.24 148.393 19.1567 148.493 19.09C148.6 19.0233 148.717 18.9767 148.843 18.95C148.97 18.9233 149.097 18.91 149.223 18.91C149.417 18.91 149.593 18.9267 149.753 18.96C149.92 18.9933 150.067 19.05 150.193 19.13C150.32 19.21 150.42 19.32 150.493 19.46C150.573 19.6 150.62 19.7767 150.633 19.99H152.153C152.153 19.5767 152.073 19.2267 151.913 18.94C151.76 18.6467 151.55 18.4067 151.283 18.22C151.017 18.0333 150.71 17.9 150.363 17.82C150.023 17.7333 149.667 17.69 149.293 17.69C148.973 17.69 148.653 17.7333 148.333 17.82C148.013 17.9067 147.727 18.04 147.473 18.22C147.22 18.4 147.013 18.6267 146.853 18.9C146.7 19.1667 146.623 19.4833 146.623 19.85C146.623 20.1767 146.683 20.4567 146.803 20.69C146.93 20.9167 147.093 21.1067 147.293 21.26C147.493 21.4133 147.72 21.54 147.973 21.64C148.227 21.7333 148.487 21.8133 148.753 21.88C149.013 21.9533 149.27 22.02 149.523 22.08C149.777 22.14 150.003 22.21 150.203 22.29C150.403 22.37 150.563 22.47 150.683 22.59C150.81 22.71 150.873 22.8667 150.873 23.06C150.873 23.24 150.827 23.39 150.733 23.51C150.64 23.6233 150.523 23.7133 150.383 23.78C150.243 23.8467 150.093 23.8933 149.933 23.92C149.773 23.94 149.623 23.95 149.483 23.95C149.277 23.95 149.077 23.9267 148.883 23.88C148.69 23.8267 148.52 23.75 148.373 23.65C148.233 23.5433 148.12 23.4067 148.033 23.24C147.947 23.0733 147.903 22.87 147.903 22.63ZM154.927 17.86V25H160.347V23.68H156.497V21.93H159.957V20.71H156.497V19.18H160.267V17.86H154.927ZM164.812 22.24L165.742 19.62H165.762L166.662 22.24H164.812ZM164.962 17.86L162.262 25H163.842L164.402 23.41H167.072L167.612 25H169.242L166.572 17.86H164.962ZM173.028 21.09V19.08H174.748C175.108 19.08 175.378 19.16 175.558 19.32C175.738 19.4733 175.828 19.7233 175.828 20.07C175.828 20.43 175.738 20.69 175.558 20.85C175.378 21.01 175.108 21.09 174.748 21.09H173.028ZM171.458 17.86V25H173.028V22.21H174.598C174.991 22.21 175.274 22.2967 175.448 22.47C175.621 22.6433 175.734 22.9167 175.788 23.29C175.828 23.5767 175.858 23.8767 175.878 24.19C175.898 24.5033 175.951 24.7733 176.038 25H177.608C177.534 24.9 177.478 24.78 177.438 24.64C177.404 24.4933 177.378 24.34 177.358 24.18C177.344 24.02 177.334 23.8633 177.328 23.71C177.321 23.5567 177.314 23.4233 177.308 23.31C177.294 23.13 177.268 22.95 177.228 22.77C177.194 22.59 177.138 22.4267 177.058 22.28C176.978 22.1267 176.874 21.9967 176.748 21.89C176.621 21.7767 176.461 21.6933 176.268 21.64V21.62C176.668 21.46 176.954 21.2267 177.128 20.92C177.308 20.6133 177.398 20.25 177.398 19.83C177.398 19.5567 177.348 19.3033 177.248 19.07C177.154 18.83 177.014 18.62 176.828 18.44C176.648 18.26 176.428 18.12 176.168 18.02C175.914 17.9133 175.628 17.86 175.308 17.86H171.458ZM185.034 20.26H186.554C186.508 19.8467 186.394 19.48 186.214 19.16C186.034 18.84 185.804 18.5733 185.524 18.36C185.251 18.14 184.938 17.9733 184.584 17.86C184.238 17.7467 183.868 17.69 183.474 17.69C182.928 17.69 182.434 17.7867 181.994 17.98C181.561 18.1733 181.194 18.44 180.894 18.78C180.594 19.12 180.364 19.52 180.204 19.98C180.044 20.4333 179.964 20.9267 179.964 21.46C179.964 21.98 180.044 22.4667 180.204 22.92C180.364 23.3667 180.594 23.7567 180.894 24.09C181.194 24.4233 181.561 24.6867 181.994 24.88C182.434 25.0667 182.928 25.16 183.474 25.16C183.914 25.16 184.318 25.0933 184.684 24.96C185.051 24.8267 185.371 24.6333 185.644 24.38C185.918 24.1267 186.138 23.82 186.304 23.46C186.471 23.1 186.574 22.6967 186.614 22.25H185.094C185.034 22.73 184.868 23.1167 184.594 23.41C184.328 23.7033 183.954 23.85 183.474 23.85C183.121 23.85 182.821 23.7833 182.574 23.65C182.328 23.51 182.128 23.3267 181.974 23.1C181.821 22.8733 181.708 22.62 181.634 22.34C181.568 22.0533 181.534 21.76 181.534 21.46C181.534 21.1467 181.568 20.8433 181.634 20.55C181.708 20.2567 181.821 19.9967 181.974 19.77C182.128 19.5367 182.328 19.3533 182.574 19.22C182.821 19.08 183.121 19.01 183.474 19.01C183.668 19.01 183.851 19.0433 184.024 19.11C184.204 19.17 184.364 19.2567 184.504 19.37C184.644 19.4833 184.761 19.6167 184.854 19.77C184.948 19.9167 185.008 20.08 185.034 20.26ZM189.286 17.86V25H190.856V21.92H193.746V25H195.316V17.86H193.746V20.6H190.856V17.86H189.286ZM198.299 17.86V25H199.869V17.86H198.299ZM202.848 17.86V25H204.318V20.22H204.338L207.308 25H208.878V17.86H207.408V22.65H207.388L204.408 17.86H202.848ZM217.02 24.19L217.18 25H218.18V21.14H215.18V22.31H216.76C216.713 22.81 216.547 23.1933 216.26 23.46C215.98 23.72 215.58 23.85 215.06 23.85C214.707 23.85 214.407 23.7833 214.16 23.65C213.913 23.51 213.713 23.3267 213.56 23.1C213.407 22.8733 213.293 22.62 213.22 22.34C213.153 22.0533 213.12 21.76 213.12 21.46C213.12 21.1467 213.153 20.8433 213.22 20.55C213.293 20.2567 213.407 19.9967 213.56 19.77C213.713 19.5367 213.913 19.3533 214.16 19.22C214.407 19.08 214.707 19.01 215.06 19.01C215.44 19.01 215.763 19.11 216.03 19.31C216.297 19.51 216.477 19.81 216.57 20.21H218.07C218.03 19.8033 217.92 19.4433 217.74 19.13C217.56 18.8167 217.33 18.5533 217.05 18.34C216.777 18.1267 216.467 17.9667 216.12 17.86C215.78 17.7467 215.427 17.69 215.06 17.69C214.513 17.69 214.02 17.7867 213.58 17.98C213.147 18.1733 212.78 18.44 212.48 18.78C212.18 19.12 211.95 19.52 211.79 19.98C211.63 20.4333 211.55 20.9267 211.55 21.46C211.55 21.98 211.63 22.4667 211.79 22.92C211.95 23.3667 212.18 23.7567 212.48 24.09C212.78 24.4233 213.147 24.6867 213.58 24.88C214.02 25.0667 214.513 25.16 215.06 25.16C215.407 25.16 215.75 25.09 216.09 24.95C216.43 24.8033 216.74 24.55 217.02 24.19Z" fill="#333333"/>
<path d="M263.96 17.86V25H269.01V23.68H265.53V17.86H263.96ZM271.488 17.86V25H273.058V17.86H271.488ZM279.357 25L281.727 17.86H280.107L278.497 22.88H278.477L276.887 17.86H275.277L277.587 25H279.357ZM283.936 17.86V25H289.356V23.68H285.506V21.93H288.966V20.71H285.506V19.18H289.276V17.86H283.936Z" fill="#CCCCCC"/>
<path d="M0 0H111.91L123 21L111.91 42H0V0Z" fill="#FDCC1E"/>
<path d="M44.01 25L46.38 17.86H44.76L43.15 22.88H43.13L41.54 17.86H39.93L42.24 25H44.01ZM49.8488 21.46C49.8488 21.1467 49.8822 20.8433 49.9488 20.55C50.0222 20.2567 50.1355 19.9967 50.2888 19.77C50.4422 19.5367 50.6422 19.3533 50.8888 19.22C51.1355 19.08 51.4355 19.01 51.7888 19.01C52.1422 19.01 52.4422 19.08 52.6888 19.22C52.9355 19.3533 53.1355 19.5367 53.2888 19.77C53.4422 19.9967 53.5522 20.2567 53.6188 20.55C53.6922 20.8433 53.7288 21.1467 53.7288 21.46C53.7288 21.76 53.6922 22.0533 53.6188 22.34C53.5522 22.62 53.4422 22.8733 53.2888 23.1C53.1355 23.3267 52.9355 23.51 52.6888 23.65C52.4422 23.7833 52.1422 23.85 51.7888 23.85C51.4355 23.85 51.1355 23.7833 50.8888 23.65C50.6422 23.51 50.4422 23.3267 50.2888 23.1C50.1355 22.8733 50.0222 22.62 49.9488 22.34C49.8822 22.0533 49.8488 21.76 49.8488 21.46ZM48.2788 21.46C48.2788 21.98 48.3588 22.4667 48.5188 22.92C48.6788 23.3667 48.9088 23.7567 49.2088 24.09C49.5088 24.4233 49.8755 24.6867 50.3088 24.88C50.7488 25.0667 51.2422 25.16 51.7888 25.16C52.3422 25.16 52.8355 25.0667 53.2688 24.88C53.7022 24.6867 54.0688 24.4233 54.3688 24.09C54.6688 23.7567 54.8988 23.3667 55.0588 22.92C55.2188 22.4667 55.2988 21.98 55.2988 21.46C55.2988 20.9267 55.2188 20.4333 55.0588 19.98C54.8988 19.52 54.6688 19.12 54.3688 18.78C54.0688 18.44 53.7022 18.1733 53.2688 17.98C52.8355 17.7867 52.3422 17.69 51.7888 17.69C51.2422 17.69 50.7488 17.7867 50.3088 17.98C49.8755 18.1733 49.5088 18.44 49.2088 18.78C48.9088 19.12 48.6788 19.52 48.5188 19.98C48.3588 20.4333 48.2788 20.9267 48.2788 21.46ZM59.552 19.18V25H61.122V19.18H63.262V17.86H57.412V19.18H59.552ZM65.6853 17.86V25H71.1053V23.68H67.2553V21.93H70.7153V20.71H67.2553V19.18H71.0253V17.86H65.6853ZM75.3397 23.68V19.18H76.4597C76.8464 19.18 77.1697 19.2367 77.4297 19.35C77.6964 19.4567 77.9097 19.6133 78.0697 19.82C78.2297 20.0267 78.343 20.2767 78.4097 20.57C78.483 20.8567 78.5197 21.18 78.5197 21.54C78.5197 21.9333 78.4697 22.2667 78.3697 22.54C78.2697 22.8133 78.1364 23.0367 77.9697 23.21C77.803 23.3767 77.613 23.4967 77.3997 23.57C77.1864 23.6433 76.9664 23.68 76.7397 23.68H75.3397ZM73.7697 17.86V25H76.8497C77.3964 25 77.8697 24.91 78.2697 24.73C78.6764 24.5433 79.013 24.29 79.2797 23.97C79.553 23.65 79.7564 23.27 79.8897 22.83C80.023 22.39 80.0897 21.91 80.0897 21.39C80.0897 20.7967 80.0064 20.28 79.8397 19.84C79.6797 19.4 79.453 19.0333 79.1597 18.74C78.873 18.4467 78.5297 18.2267 78.1297 18.08C77.7364 17.9333 77.3097 17.86 76.8497 17.86H73.7697Z" fill="#999999"/>
</svg>
